<?xml version="1.0" encoding="UTF-8"?>
<svg id="Layer_1" data-name="Layer 1" xmlns="http://www.w3.org/2000/svg" viewBox="0 0 756.57 756.56">
  <defs>
    <style>
      .cls-1 {
        fill: #231f20;
      }
    </style>
  </defs>
  <g>
    <polygon class="cls-1" points="381.56 42.42 376.59 42.42 373.18 0 384.11 0 381.56 42.42"/>
    <g>
      <polygon class="cls-1" points="549.68 89.42 545.37 86.92 563.72 48.52 573.18 54.01 549.68 89.42"/>
      <polygon class="cls-1" points="418.01 25.58 415.38 25.3 415.94 2.67 421.72 3.28 418.01 25.58"/>
      <polygon class="cls-1" points="454.69 31.67 452.1 31.12 455.03 8.67 460.72 9.88 454.69 31.67"/>
      <polygon class="cls-1" points="490.54 41.57 488.02 40.75 493.28 18.73 498.81 20.52 490.54 41.57"/>
      <polygon class="cls-1" points="525.15 55.16 522.73 54.08 530.26 32.73 535.58 35.1 525.15 55.16"/>
    </g>
    <g>
      <polygon class="cls-1" points="670.96 213.48 668.48 209.17 703.54 185.05 709 194.53 670.96 213.48"/>
      <polygon class="cls-1" points="588.72 92.46 586.58 90.9 598.36 71.57 603.07 74.98 588.72 92.46"/>
      <polygon class="cls-1" points="617.47 116.04 615.5 114.27 629.24 96.27 633.57 100.16 617.47 116.04"/>
      <polygon class="cls-1" points="643.59 142.5 641.82 140.54 657.36 124.08 661.26 128.4 643.59 142.5"/>
      <polygon class="cls-1" points="666.8 171.55 665.25 169.41 682.43 154.67 685.85 159.37 666.8 171.55"/>
    </g>
    <g>
      <polygon class="cls-1" points="714.15 381.52 714.15 376.55 756.57 373.14 756.57 384.08 714.15 381.52"/>
      <polygon class="cls-1" points="703.28 235.6 702.2 233.18 722.06 222.31 724.44 227.62 703.28 235.6"/>
      <polygon class="cls-1" points="716.42 270.38 715.6 267.87 736.49 259.13 738.3 264.66 716.42 270.38"/>
      <polygon class="cls-1" points="725.85 306.35 725.3 303.77 746.99 297.26 748.21 302.95 725.85 306.35"/>
      <polygon class="cls-1" points="731.47 343.11 731.19 340.48 753.44 336.28 754.06 342.06 731.47 343.11"/>
    </g>
    <g>
      <polygon class="cls-1" points="667.72 548.69 670.2 544.38 708.66 562.6 703.2 572.08 667.72 548.69"/>
      <polygon class="cls-1" points="731.12 416.82 731.39 414.18 754.03 414.67 753.44 420.46 731.12 416.82"/>
      <polygon class="cls-1" points="725.15 453.52 725.69 450.93 748.16 453.78 746.96 459.48 725.15 453.52"/>
      <polygon class="cls-1" points="715.37 489.39 716.18 486.88 738.22 492.06 736.44 497.6 715.37 489.39"/>
      <polygon class="cls-1" points="701.9 524.05 702.97 521.63 724.34 529.09 721.99 534.42 701.9 524.05"/>
    </g>
    <g>
      <polygon class="cls-1" points="544.05 670.39 548.36 667.89 572.59 702.87 563.14 708.36 544.05 670.39"/>
      <polygon class="cls-1" points="664.81 587.75 666.36 585.6 685.73 597.32 682.33 602.04 664.81 587.75"/>
      <polygon class="cls-1" points="641.32 616.57 643.08 614.6 661.13 628.28 657.25 632.62 641.32 616.57"/>
      <polygon class="cls-1" points="614.94 642.78 616.9 641 633.42 656.49 629.11 660.41 614.94 642.78"/>
      <polygon class="cls-1" points="585.97 666.09 588.1 664.52 602.91 681.66 598.21 685.1 585.97 666.09"/>
    </g>
    <g>
      <polygon class="cls-1" points="376.16 714.13 381.13 714.11 384.68 756.52 373.74 756.56 376.16 714.13"/>
      <polygon class="cls-1" points="522.04 702.78 524.46 701.69 535.4 721.51 530.1 723.91 522.04 702.78"/>
      <polygon class="cls-1" points="487.3 716.04 489.82 715.21 498.62 736.06 493.1 737.89 487.3 716.04"/>
      <polygon class="cls-1" points="451.36 725.59 453.95 725.02 460.53 746.69 454.84 747.93 451.36 725.59"/>
      <polygon class="cls-1" points="414.63 731.32 417.26 731.03 421.53 753.27 415.75 753.91 414.63 731.32"/>
    </g>
    <g>
      <polygon class="cls-1" points="208.83 668.25 213.15 670.72 195.06 709.24 185.57 703.81 208.83 668.25"/>
      <polygon class="cls-1" points="340.92 731.22 343.55 731.48 343.14 754.11 337.35 753.55 340.92 731.22"/>
      <polygon class="cls-1" points="304.2 725.37 306.79 725.9 304.01 748.37 298.31 747.2 304.2 725.37"/>
      <polygon class="cls-1" points="268.29 715.71 270.81 716.51 265.7 738.57 260.15 736.81 268.29 715.71"/>
      <polygon class="cls-1" points="233.59 702.35 236.02 703.41 228.62 724.81 223.29 722.48 233.59 702.35"/>
    </g>
    <g>
      <polygon class="cls-1" points="86.73 544.99 89.24 549.28 54.34 573.63 48.82 564.19 86.73 544.99"/>
      <polygon class="cls-1" points="169.77 665.47 171.92 667.01 160.27 686.42 155.54 683.04 169.77 665.47"/>
      <polygon class="cls-1" points="140.87 642.07 142.85 643.83 129.23 661.92 124.87 658.06 140.87 642.07"/>
      <polygon class="cls-1" points="114.57 615.78 116.36 617.74 100.92 634.3 96.99 630 114.57 615.78"/>
      <polygon class="cls-1" points="91.17 586.89 92.74 589.02 75.66 603.87 72.2 599.19 91.17 586.89"/>
    </g>
    <g>
      <polygon class="cls-1" points="42.43 377.23 42.47 382.21 .07 385.9 0 374.96 42.43 377.23"/>
      <polygon class="cls-1" points="54.27 523.08 55.37 525.49 35.58 536.5 33.17 531.2 54.27 523.08"/>
      <polygon class="cls-1" points="40.9 488.38 41.74 490.9 20.91 499.77 19.06 494.25 40.9 488.38"/>
      <polygon class="cls-1" points="31.23 452.48 31.8 455.06 10.16 461.72 8.9 456.03 31.23 452.48"/>
      <polygon class="cls-1" points="25.37 415.76 25.67 418.39 3.45 422.74 2.79 416.96 25.37 415.76"/>
    </g>
    <g>
      <polygon class="cls-1" points="88.82 207.95 86.34 212.27 47.87 194.06 53.33 184.58 88.82 207.95"/>
      <polygon class="cls-1" points="25.47 339.85 25.2 342.49 2.57 342.01 3.15 336.22 25.47 339.85"/>
      <polygon class="cls-1" points="31.43 303.15 30.88 305.74 8.42 302.9 9.61 297.2 31.43 303.15"/>
      <polygon class="cls-1" points="41.19 267.27 40.38 269.79 18.34 264.62 20.12 259.07 41.19 267.27"/>
      <polygon class="cls-1" points="54.65 232.61 53.58 235.03 32.21 227.58 34.55 222.25 54.65 232.61"/>
    </g>
    <polygon class="cls-1" points="212.44 86.21 208.14 88.71 183.89 53.74 193.35 48.25 212.44 86.21"/>
    <polygon class="cls-1" points="91.72 168.9 90.17 171.05 70.79 159.34 74.19 154.61 91.72 168.9"/>
    <polygon class="cls-1" points="115.2 140.06 113.43 142.04 95.39 128.37 99.26 124.02 115.2 140.06"/>
    <polygon class="cls-1" points="141.56 113.85 139.6 115.63 123.09 100.14 127.39 96.22 141.56 113.85"/>
    <polygon class="cls-1" points="170.53 90.53 168.39 92.09 153.59 74.96 158.28 71.52 170.53 90.53"/>
    <polygon class="cls-1" points="236.91 52.73 234.49 53.81 223.69 33.9 229.01 31.54 236.91 52.73"/>
    <polygon class="cls-1" points="271.75 39.73 269.22 40.54 260.57 19.62 266.1 17.83 271.75 39.73"/>
    <polygon class="cls-1" points="307.75 30.44 305.16 30.98 298.74 9.27 304.43 8.07 307.75 30.44"/>
    <polygon class="cls-1" points="344.53 24.96 341.9 25.24 337.78 2.97 343.57 2.37 344.53 24.96"/>
  </g>
  <path d="M229.35,659.72c.91-6.2,2.17-12.32,3.8-18.37,1.63-6.05,3.69-11.96,6.18-17.75,2.49-5.78,5.48-11.45,8.96-17.01,3.48-5.55,7.52-10.98,12.14-16.27h-42.97v-6.69h52.61v6.35c-4.08,5.14-7.84,10.21-11.28,15.19-3.44,4.99-6.52,10.25-9.24,15.76-2.72,5.52-5.06,11.43-7.03,17.75-1.97,6.31-3.48,13.32-4.54,21.03h-8.62Z"/>
  <path d="M107.94,532.01c0-4.08,1.13-7.82,3.4-11.22,2.27-3.4,5.21-6.08,8.84-8.05-3.17-1.81-5.71-4.16-7.6-7.03-1.89-2.87-2.83-6.05-2.83-9.52,0-2.72,.62-5.29,1.87-7.71,1.25-2.42,2.93-4.53,5.05-6.35,2.11-1.81,4.59-3.23,7.43-4.25,2.83-1.02,5.87-1.53,9.13-1.53s6.31,.51,9.18,1.53c2.87,1.02,5.37,2.44,7.48,4.25,2.12,1.81,3.8,3.93,5.05,6.35,1.25,2.42,1.87,4.99,1.87,7.71,0,3.4-.95,6.56-2.83,9.47-1.89,2.91-4.42,5.27-7.6,7.09,3.7,1.97,6.69,4.65,8.96,8.05,2.27,3.4,3.4,7.14,3.4,11.22,0,3.1-.66,6.01-1.99,8.73-1.32,2.72-3.14,5.1-5.44,7.14-2.31,2.04-5.01,3.65-8.11,4.82-3.1,1.17-6.43,1.76-9.98,1.76s-6.86-.58-9.92-1.76c-3.06-1.17-5.72-2.78-7.99-4.82-2.27-2.04-4.06-4.42-5.39-7.14-1.32-2.72-1.99-5.63-1.99-8.73Zm8.28,0c0,2.2,.45,4.25,1.36,6.18,.91,1.93,2.11,3.59,3.63,4.99,1.51,1.4,3.3,2.52,5.39,3.35,2.08,.83,4.29,1.24,6.63,1.24s4.57-.41,6.69-1.24c2.12-.83,3.93-1.95,5.44-3.35,1.51-1.4,2.72-3.06,3.63-4.99,.91-1.93,1.36-3.99,1.36-6.18s-.45-4.25-1.36-6.18c-.91-1.93-2.12-3.61-3.63-5.05-1.51-1.44-3.33-2.57-5.44-3.4-2.12-.83-4.35-1.25-6.69-1.25s-4.56,.42-6.63,1.25c-2.08,.83-3.87,1.96-5.39,3.4-1.51,1.44-2.72,3.12-3.63,5.05-.91,1.93-1.36,3.99-1.36,6.18Zm1.93-35.83c0,1.82,.4,3.53,1.19,5.16,.79,1.63,1.87,3.02,3.23,4.19,1.36,1.17,2.97,2.12,4.82,2.84,1.85,.72,3.8,1.08,5.84,1.08s4.1-.36,5.95-1.08c1.85-.72,3.48-1.66,4.87-2.84,1.4-1.17,2.5-2.57,3.29-4.19,.79-1.63,1.19-3.34,1.19-5.16s-.4-3.53-1.19-5.16c-.79-1.63-1.89-3.02-3.29-4.2-1.4-1.17-3.03-2.12-4.87-2.84-1.85-.72-3.84-1.08-5.95-1.08s-3.99,.36-5.84,1.08c-1.85,.72-3.46,1.67-4.82,2.84-1.36,1.17-2.44,2.57-3.23,4.2-.79,1.63-1.19,3.34-1.19,5.16Z"/>
  <path d="M522.32,180.13v-62.02c-3.55,5.07-7.46,8.62-11.73,10.66-4.27,2.04-9.36,3.06-15.25,3.06v-8.05c4.54,0,8.49-.74,11.85-2.21,3.36-1.47,6.18-3.27,8.45-5.38s3.95-4.38,5.05-6.81c1.09-2.42,1.64-4.53,1.64-6.35h7.94v77.1h-7.94Z"/>
  <path d="M601.7,224.15c.38-3.48,1.28-6.65,2.72-9.52,1.44-2.87,3.29-5.31,5.56-7.31,2.27-2,4.93-3.55,7.99-4.65,3.06-1.1,6.44-1.64,10.15-1.64s7.26,.59,10.21,1.76c2.95,1.17,5.42,2.76,7.43,4.76,2,2,3.5,4.29,4.48,6.86,.98,2.57,1.47,5.21,1.47,7.94,0,3.17-.59,5.99-1.76,8.45-1.17,2.46-2.7,4.72-4.59,6.8-1.89,2.08-4.08,4.01-6.58,5.78-2.5,1.78-5.03,3.57-7.6,5.38-2.34,1.59-4.59,3.17-6.75,4.76-2.15,1.59-4.1,3.21-5.84,4.87-1.74,1.66-3.29,3.46-4.65,5.39-1.36,1.93-2.42,4.03-3.18,6.29h40.93v8.05h-49.89v-7.6c.83-3.1,2.14-5.94,3.91-8.5,1.78-2.57,3.78-4.97,6.01-7.2,2.23-2.23,4.61-4.29,7.15-6.18,2.53-1.89,5.01-3.67,7.42-5.33,2.12-1.51,4.2-3.02,6.24-4.54,2.04-1.51,3.86-3.08,5.44-4.7,1.59-1.63,2.87-3.29,3.86-4.99,.98-1.7,1.47-3.5,1.47-5.39,0-2.64-.4-4.97-1.19-6.97-.79-2-1.87-3.69-3.23-5.05-1.36-1.36-2.97-2.38-4.82-3.06-1.85-.68-3.84-1.02-5.96-1.02-5.06,0-9.18,1.46-12.36,4.37-3.17,2.91-4.92,6.97-5.22,12.19h-8.84Z"/>
  <path d="M648.67,363.85c.53-2.87,1.38-5.61,2.55-8.22,1.17-2.61,2.74-4.91,4.71-6.92,1.96-2,4.35-3.61,7.14-4.82,2.79-1.21,6.08-1.81,9.86-1.81,3.48,0,6.58,.49,9.3,1.48,2.72,.98,5.05,2.34,6.98,4.08,1.93,1.74,3.4,3.8,4.42,6.18,1.02,2.38,1.53,4.97,1.53,7.77,0,3.78-.94,7.13-2.83,10.03-1.89,2.91-4.65,5.2-8.28,6.86,4.38,1.59,7.94,3.95,10.66,7.09,2.72,3.14,4.08,7.35,4.08,12.64,0,3.63-.68,6.8-2.04,9.52-1.36,2.72-3.18,5.01-5.44,6.86-2.27,1.85-4.92,3.25-7.94,4.2-3.02,.94-6.24,1.42-9.64,1.42-7.26,0-13.23-2.06-17.92-6.18-4.69-4.12-7.83-9.96-9.41-17.52h8.73c.6,3.25,1.57,5.97,2.89,8.17,1.32,2.2,2.83,3.93,4.53,5.22,1.7,1.29,3.52,2.21,5.45,2.78,1.93,.57,3.83,.85,5.73,.85,2.04,0,4.04-.35,6.01-1.07,1.96-.72,3.74-1.74,5.33-3.06,1.59-1.32,2.87-2.93,3.86-4.82,.98-1.89,1.47-4.01,1.47-6.35s-.42-4.37-1.25-6.29c-.83-1.93-2-3.61-3.52-5.04-1.51-1.44-3.35-2.57-5.5-3.4-2.16-.83-4.56-1.25-7.2-1.25h-4.99v-7.37h4.99c2.57,0,4.74-.36,6.52-1.08,1.78-.72,3.21-1.68,4.31-2.89,1.09-1.21,1.89-2.55,2.38-4.02,.49-1.47,.74-3,.74-4.59,0-4.23-1.25-7.56-3.74-9.98-2.49-2.42-5.9-3.63-10.21-3.63-2.42,0-4.56,.44-6.41,1.3-1.85,.87-3.42,2.02-4.71,3.46-1.29,1.44-2.32,3.06-3.12,4.88-.79,1.81-1.3,3.67-1.53,5.56h-8.5Z"/>
  <path d="M628.76,551.65v-19.05h-35.15v-9.41l34.59-47.62h8.5v50.46h11.22v6.58h-11.22v19.05h-7.94Zm-28.24-25.62h28.24v-39.69l-28.24,39.69Z"/>
  <path d="M497.94,622.74l5.1-39.8h40.71v6.69h-34.36c-.45,4.16-.95,8.18-1.47,12.08-.53,3.89-1.06,7.96-1.59,12.19,1.59-1.21,3.21-2.15,4.88-2.84,1.66-.68,3.25-1.19,4.76-1.53,1.51-.34,2.89-.55,4.14-.62,1.25-.08,2.21-.11,2.89-.11,3.63,0,6.97,.66,10.04,1.98,3.06,1.32,5.71,3.16,7.94,5.5,2.23,2.34,3.97,5.07,5.21,8.16,1.25,3.1,1.87,6.43,1.87,9.98,0,3.33-.55,6.52-1.64,9.58-1.1,3.06-2.76,5.8-4.99,8.22-2.23,2.42-5.05,4.35-8.45,5.78-3.4,1.43-7.41,2.15-12.02,2.15-6.12,0-11.47-1.66-16.04-4.99-4.58-3.33-7.65-8.35-9.24-15.08h8.62c1.29,4.31,3.5,7.62,6.63,9.92,3.14,2.31,6.52,3.46,10.15,3.46,2.57,0,4.97-.49,7.2-1.47,2.23-.98,4.2-2.33,5.9-4.03,1.7-1.7,3.04-3.7,4.02-6.01,.98-2.3,1.47-4.82,1.47-7.54s-.53-5.23-1.59-7.54c-1.06-2.3-2.46-4.29-4.2-5.95-1.74-1.66-3.72-2.95-5.95-3.86-2.23-.91-4.52-1.36-6.86-1.36-2.65,0-5.41,.62-8.28,1.87-2.87,1.25-5.18,2.97-6.92,5.16h-7.94Z"/>
  <path d="M395.08,634.22c-.3-1.44-.87-2.85-1.7-4.25-.83-1.4-1.89-2.65-3.17-3.74-1.29-1.09-2.78-1.98-4.48-2.67-1.7-.68-3.57-1.02-5.61-1.02-3.85,0-7.07,1.08-9.64,3.23-2.57,2.16-4.63,4.88-6.18,8.17-1.55,3.29-2.64,6.86-3.29,10.71-.64,3.86-1,7.48-1.08,10.88,1.14-2.27,2.53-4.16,4.2-5.67,1.66-1.51,3.4-2.74,5.22-3.69,1.81-.95,3.61-1.6,5.38-1.98,1.78-.38,3.35-.57,4.71-.57,3.7,0,7.07,.66,10.09,1.98,3.02,1.32,5.58,3.14,7.66,5.44,2.08,2.31,3.68,5.03,4.82,8.16,1.13,3.14,1.7,6.52,1.7,10.15,0,3.33-.55,6.5-1.65,9.52-1.09,3.02-2.68,5.67-4.76,7.94-2.08,2.27-4.61,4.06-7.6,5.39-2.99,1.32-6.37,1.98-10.15,1.98-8.24,0-14.82-2.98-19.73-8.96-4.91-5.97-7.37-14.78-7.37-26.42,0-7.41,.64-13.79,1.93-19.16,1.29-5.37,3.12-9.81,5.5-13.32,2.38-3.52,5.27-6.12,8.67-7.83,3.4-1.7,7.18-2.55,11.34-2.55,3.4,0,6.43,.51,9.07,1.53,2.64,1.02,4.93,2.38,6.86,4.08,1.93,1.7,3.48,3.65,4.65,5.84,1.17,2.19,1.94,4.46,2.33,6.8h-7.71Zm-15.54,53.29c2.27,0,4.37-.47,6.29-1.42,1.92-.94,3.59-2.23,4.99-3.86,1.4-1.62,2.5-3.55,3.29-5.78,.79-2.23,1.19-4.59,1.19-7.09s-.38-4.75-1.13-6.97c-.76-2.23-1.84-4.2-3.23-5.89-1.4-1.7-3.08-3.04-5.05-4.03-1.96-.98-4.12-1.47-6.46-1.47-2.8,0-5.24,.57-7.32,1.7-2.08,1.14-3.8,2.57-5.16,4.31-1.36,1.74-2.38,3.69-3.06,5.84-.68,2.16-1.02,4.25-1.02,6.29,0,2.65,.45,5.08,1.36,7.31,.91,2.23,2.13,4.18,3.68,5.84,1.55,1.66,3.33,2.95,5.33,3.85,2,.91,4.1,1.36,6.29,1.36Z"/>
  <path d="M72.1,400.18c.3,1.44,.87,2.85,1.7,4.25,.83,1.4,1.89,2.65,3.17,3.74,1.28,1.09,2.8,1.98,4.54,2.66,1.74,.68,3.63,1.02,5.67,1.02,3.86,0,7.07-1.07,9.64-3.23,2.57-2.15,4.61-4.88,6.12-8.16,1.51-3.29,2.57-6.84,3.17-10.66,.6-3.81,.94-7.43,1.02-10.83-1.21,2.19-2.65,4.04-4.31,5.56-1.66,1.51-3.38,2.74-5.16,3.69-1.78,.94-3.53,1.62-5.27,2.04-1.74,.42-3.29,.62-4.65,.62-3.78,0-7.14-.66-10.09-1.98-2.95-1.32-5.48-3.13-7.6-5.44-2.12-2.31-3.72-5.03-4.82-8.17-1.1-3.13-1.64-6.56-1.64-10.26,0-3.32,.55-6.48,1.64-9.47,1.1-2.98,2.69-5.61,4.76-7.88,2.08-2.27,4.61-4.06,7.6-5.39,2.98-1.32,6.37-1.98,10.15-1.98,8.24,0,14.82,2.97,19.73,8.9,4.91,5.94,7.37,14.72,7.37,26.36,0,7.41-.64,13.82-1.93,19.22-1.29,5.4-3.12,9.86-5.5,13.38-2.38,3.51-5.27,6.12-8.67,7.82-3.4,1.7-7.18,2.55-11.34,2.55-3.4,0-6.45-.51-9.13-1.53-2.68-1.02-4.99-2.38-6.92-4.08-1.93-1.7-3.46-3.67-4.59-5.9-1.13-2.23-1.89-4.52-2.27-6.86h7.6Zm15.65-53.29c-2.27,0-4.38,.47-6.35,1.42-1.97,.95-3.64,2.23-5.05,3.86-1.4,1.63-2.49,3.55-3.29,5.78-.79,2.23-1.19,4.59-1.19,7.09s.37,4.84,1.13,7.03c.76,2.19,1.83,4.14,3.23,5.84,1.4,1.7,3.06,3.04,4.99,4.03,1.93,.98,4.1,1.47,6.52,1.47,2.8,0,5.25-.55,7.37-1.64,2.11-1.09,3.85-2.53,5.21-4.31,1.36-1.77,2.38-3.74,3.06-5.89,.68-2.16,1.02-4.25,1.02-6.29,0-2.65-.45-5.08-1.36-7.31-.91-2.23-2.14-4.18-3.68-5.84-1.55-1.66-3.33-2.95-5.33-3.86-2-.91-4.1-1.36-6.29-1.36Z"/>
  <g>
    <path d="M111.93,278.67v-62.02c-3.05,5.07-6.4,8.62-10.06,10.66-3.66,2.04-8.02,3.06-13.08,3.06v-8.05c3.89,0,7.28-.74,10.16-2.21,2.88-1.47,5.3-3.27,7.25-5.38,1.95-2.12,3.39-4.38,4.33-6.81,.94-2.42,1.41-4.54,1.41-6.35h6.81v77.1h-6.81Z"/>
    <path d="M182.71,240.12c0,5.9-.49,11.23-1.46,15.99-.97,4.76-2.4,8.83-4.28,12.19-1.88,3.36-4.23,5.94-7.05,7.71-2.82,1.78-6.08,2.66-9.77,2.66s-6.94-.89-9.72-2.66c-2.79-1.78-5.14-4.35-7.05-7.71-1.91-3.36-3.34-7.43-4.28-12.19-.94-4.76-1.41-10.09-1.41-15.99s.47-11.22,1.41-15.99c.94-4.76,2.37-8.82,4.28-12.19,1.91-3.36,4.26-5.93,7.05-7.71,2.79-1.78,6.03-2.67,9.72-2.67s6.95,.89,9.77,2.67c2.82,1.78,5.17,4.35,7.05,7.71,1.88,3.36,3.31,7.43,4.28,12.19,.97,4.76,1.46,10.09,1.46,15.99Zm-37.92,0c0,5.67,.41,10.51,1.22,14.52,.81,4.01,1.89,7.31,3.26,9.92,1.36,2.61,2.98,4.52,4.86,5.73,1.88,1.21,3.89,1.81,6.03,1.81s4.15-.6,6.03-1.81c1.88-1.21,3.5-3.12,4.86-5.73,1.36-2.61,2.45-5.91,3.26-9.92,.81-4.01,1.22-8.85,1.22-14.52s-.41-10.52-1.22-14.57c-.81-4.04-1.9-7.37-3.26-9.98-1.36-2.61-2.98-4.51-4.86-5.73-1.88-1.21-3.89-1.81-6.03-1.81s-4.15,.61-6.03,1.81c-1.88,1.21-3.5,3.12-4.86,5.73-1.36,2.61-2.45,5.94-3.26,9.98-.81,4.05-1.22,8.9-1.22,14.57Z"/>
  </g>
  <g>
    <path d="M212.61,177.87v-62.02c-3.05,5.07-6.4,8.62-10.06,10.66-3.66,2.04-8.02,3.06-13.08,3.06v-8.05c3.89,0,7.28-.74,10.16-2.21,2.88-1.47,5.3-3.27,7.24-5.39,1.95-2.12,3.39-4.38,4.33-6.81,.94-2.42,1.41-4.53,1.41-6.35h6.81v77.1h-6.81Z"/>
    <path d="M267.06,177.87v-62.02c-3.05,5.07-6.4,8.62-10.06,10.66-3.66,2.04-8.02,3.06-13.08,3.06v-8.05c3.89,0,7.28-.74,10.16-2.21,2.88-1.47,5.3-3.27,7.24-5.39,1.94-2.12,3.39-4.38,4.33-6.81,.94-2.42,1.41-4.53,1.41-6.35h6.81v77.1h-6.81Z"/>
  </g>
  <g>
    <path d="M354.4,140.65v-62.02c-3.05,5.07-6.4,8.62-10.06,10.66-3.66,2.04-8.02,3.06-13.08,3.06v-8.05c3.89,0,7.28-.74,10.16-2.21,2.88-1.47,5.3-3.27,7.24-5.38,1.94-2.12,3.39-4.38,4.33-6.81,.94-2.42,1.41-4.53,1.41-6.35h6.81v77.1h-6.81Z"/>
    <path d="M381.14,86.68c.32-3.48,1.1-6.65,2.33-9.52,1.23-2.87,2.82-5.31,4.77-7.31,1.95-2,4.23-3.55,6.86-4.65,2.62-1.1,5.52-1.64,8.7-1.64s6.22,.59,8.75,1.76c2.53,1.17,4.65,2.76,6.37,4.76,1.72,2,3,4.29,3.84,6.86,.84,2.57,1.26,5.21,1.26,7.94,0,3.17-.5,5.99-1.51,8.45-1,2.46-2.32,4.72-3.93,6.8-1.62,2.08-3.5,4.01-5.64,5.78-2.14,1.78-4.31,3.57-6.52,5.39-2.01,1.59-3.94,3.17-5.79,4.76-1.84,1.59-3.51,3.21-5,4.87-1.49,1.67-2.82,3.46-3.99,5.39-1.17,1.93-2.07,4.02-2.72,6.29h35.1v8.05h-42.78v-7.6c.71-3.1,1.83-5.93,3.36-8.5,1.52-2.57,3.24-4.97,5.15-7.2,1.91-2.23,3.95-4.29,6.13-6.18,2.17-1.89,4.29-3.67,6.37-5.33,1.81-1.51,3.6-3.02,5.35-4.54,1.75-1.51,3.31-3.08,4.67-4.7,1.36-1.63,2.46-3.29,3.31-4.99,.84-1.7,1.26-3.5,1.26-5.39,0-2.64-.34-4.97-1.02-6.97-.68-2-1.61-3.69-2.77-5.05-1.16-1.36-2.54-2.38-4.13-3.06-1.59-.68-3.29-1.02-5.1-1.02-4.34,0-7.88,1.46-10.6,4.37-2.72,2.91-4.21,6.97-4.47,12.19h-7.58Z"/>
  </g>
</svg>