<?xml version="1.0" encoding="UTF-8"?>
<svg xmlns="http://www.w3.org/2000/svg" xmlns:xlink="http://www.w3.org/1999/xlink" viewBox="0 0 1000 1000">
  <defs>
    <style>
      .cls-1 {
        fill: #ddd;
      }

      .cls-2 {
        fill: #f0f0f0;
      }

      .cls-3 {
        fill: #f4f4f4;
      }

      .cls-4 {
        fill: #fff;
      }

      .cls-5 {
        fill: #c5c5c5;
      }

      .cls-6 {
        fill: #d1d1d1;
      }

      .cls-7 {
        fill: #fafafa;
      }

      .cls-8 {
        fill: #dbdbdb;
      }

      .cls-9 {
        fill: #cacaca;
      }

      .cls-10 {
        fill: #d8d8d8;
      }

      .cls-11 {
        fill: #f6f6f6;
      }

      .cls-12 {
        fill: #bfbfbf;
      }

      .cls-13 {
        fill: silver;
      }

      .cls-14 {
        fill: #e2e2e2;
      }

      .cls-15 {
        fill: #f5f5f5;
      }

      .cls-16 {
        isolation: isolate;
      }

      .cls-17 {
        fill: #d6d6d6;
      }

      .cls-18 {
        fill: #c9c9c9;
      }

      .cls-19 {
        fill: #e0e0e0;
      }

      .cls-20 {
        fill: #c7c7c7;
      }

      .cls-21 {
        fill: #dedede;
      }

      .cls-22 {
        fill: #c3c3c3;
      }

      .cls-23 {
        fill: #cfcfcf;
      }

      .cls-24 {
        fill: #d7d7d7;
      }

      .cls-25 {
        fill: #e1e1e1;
      }

      .cls-26 {
        fill: #e6e6e6;
      }

      .cls-27 {
        fill: #e7e7e7;
      }

      .cls-28 {
        fill: url(#radial-gradient);
      }

      .cls-29 {
        fill: #d4d4d4;
      }

      .cls-30 {
        fill: #eaeaea;
      }

      .cls-31 {
        fill: #c8c8c8;
      }

      .cls-32 {
        fill: #fbfbfb;
      }

      .cls-33 {
        fill: #f9f9f9;
      }

      .cls-34 {
        fill: #e5e5e5;
      }

      .cls-35 {
        fill: url(#radial-gradient-2);
      }

      .cls-36 {
        fill: #d3d3d3;
      }

      .cls-37 {
        fill: #ebebeb;
      }

      .cls-38 {
        fill: #c2b59b;
      }

      .cls-39 {
        fill: none;
      }

      .cls-40 {
        fill: #dcdcdc;
      }

      .cls-41 {
        fill: #e8e8e8;
      }

      .cls-42 {
        fill: #ccc;
      }

      .cls-43 {
        fill: #f7f7f7;
      }

      .cls-44 {
        fill: #efefef;
      }

      .cls-45 {
        fill: #ed1c24;
      }

      .cls-46 {
        fill: #c2c2c2;
      }

      .cls-47 {
        fill: #f1f1f1;
      }

      .cls-48 {
        fill: #cecece;
      }

      .cls-49 {
        fill: #d9d9d9;
      }

      .cls-50 {
        fill: #cdcdcd;
      }

      .cls-51 {
        fill: #d2d2d2;
      }

      .cls-52 {
        fill: #231f20;
      }

      .cls-53 {
        mix-blend-mode: multiply;
      }

      .cls-54 {
        fill: #ececec;
      }

      .cls-55 {
        fill: #f2f2f2;
      }

      .cls-56 {
        fill: #c4c4c4;
      }

      .cls-57 {
        fill: #fefefe;
      }

      .cls-58 {
        fill: #e3e3e3;
      }

      .cls-59 {
        fill: #fcfcfc;
      }

      .cls-60 {
        fill: #ededed;
      }
    </style>
    <radialGradient id="radial-gradient" cx="487.54" cy="506.14" fx="487.54" fy="506.14" r="24.67" gradientTransform="translate(1124.08 -119.46) rotate(88.5) scale(1.24)" gradientUnits="userSpaceOnUse">
      <stop offset="0" stop-color="#fffccc"/>
      <stop offset=".48" stop-color="#c2b59b"/>
      <stop offset="1" stop-color="#928874"/>
    </radialGradient>
    <radialGradient id="radial-gradient-2" cx="487.54" cy="506.14" fx="487.54" fy="506.14" r="24.67" gradientTransform="translate(-103.91 -139.04) scale(1.24)" xlink:href="#radial-gradient"/>
  </defs>
  <g class="cls-16">
    <g id="Layer_1" data-name="Layer 1">
      <rect class="cls-39" width="1000" height="1000"/>
      <g>
        <g>
          <polygon class="cls-52" points="503.29 165.24 498.32 165.24 494.91 122.82 505.85 122.82 503.29 165.24"/>
          <g>
            <polygon class="cls-52" points="671.41 212.23 667.11 209.74 685.45 171.34 694.91 176.83 671.41 212.23"/>
            <polygon class="cls-52" points="539.74 148.4 537.11 148.12 537.67 125.49 543.46 126.09 539.74 148.4"/>
            <polygon class="cls-52" points="576.42 154.49 573.84 153.94 576.76 131.49 582.45 132.7 576.42 154.49"/>
            <polygon class="cls-52" points="612.27 164.39 609.75 163.57 615.01 141.54 620.54 143.34 612.27 164.39"/>
            <polygon class="cls-52" points="646.88 177.98 644.46 176.9 651.99 155.55 657.31 157.91 646.88 177.98"/>
          </g>
          <g>
            <polygon class="cls-52" points="792.7 336.3 790.21 331.99 825.27 307.87 830.73 317.34 792.7 336.3"/>
            <polygon class="cls-52" points="710.45 215.27 708.31 213.72 720.09 194.38 724.8 197.8 710.45 215.27"/>
            <polygon class="cls-52" points="739.2 238.86 737.23 237.09 750.97 219.09 755.3 222.98 739.2 238.86"/>
            <polygon class="cls-52" points="765.32 265.32 763.55 263.35 779.1 246.89 783 251.21 765.32 265.32"/>
            <polygon class="cls-52" points="788.53 294.37 786.98 292.23 804.16 277.49 807.59 282.19 788.53 294.37"/>
          </g>
          <g>
            <polygon class="cls-52" points="835.89 504.34 835.88 499.36 878.3 495.96 878.3 506.89 835.89 504.34"/>
            <polygon class="cls-52" points="825.01 358.42 823.93 356 843.79 345.13 846.17 350.44 825.01 358.42"/>
            <polygon class="cls-52" points="838.16 393.2 837.33 390.69 858.22 381.95 860.03 387.48 838.16 393.2"/>
            <polygon class="cls-52" points="847.59 429.17 847.03 426.58 868.72 420.08 869.94 425.77 847.59 429.17"/>
            <polygon class="cls-52" points="853.2 465.93 852.92 463.3 875.17 459.09 875.79 464.88 853.2 465.93"/>
          </g>
          <g>
            <polygon class="cls-52" points="789.45 671.51 791.93 667.2 830.39 685.42 824.94 694.89 789.45 671.51"/>
            <polygon class="cls-52" points="852.85 539.64 853.12 537 875.76 537.49 875.17 543.27 852.85 539.64"/>
            <polygon class="cls-52" points="846.88 576.34 847.43 573.74 869.89 576.6 868.7 582.29 846.88 576.34"/>
            <polygon class="cls-52" points="837.1 612.21 837.92 609.69 859.96 614.88 858.18 620.42 837.1 612.21"/>
            <polygon class="cls-52" points="823.63 646.87 824.7 644.45 846.08 651.91 843.73 657.23 823.63 646.87"/>
          </g>
          <g>
            <polygon class="cls-52" points="665.79 793.21 670.09 790.71 694.32 825.69 684.87 831.18 665.79 793.21"/>
            <polygon class="cls-52" points="786.54 710.57 788.09 708.42 807.46 720.13 804.06 724.86 786.54 710.57"/>
            <polygon class="cls-52" points="763.05 739.39 764.82 737.42 782.86 751.1 778.98 755.44 763.05 739.39"/>
            <polygon class="cls-52" points="736.67 765.6 738.64 763.82 755.15 779.31 750.84 783.23 736.67 765.6"/>
            <polygon class="cls-52" points="707.7 788.91 709.84 787.34 724.64 804.48 719.95 807.92 707.7 788.91"/>
          </g>
          <g>
            <polygon class="cls-52" points="497.89 836.95 502.86 836.93 506.41 879.34 495.48 879.38 497.89 836.95"/>
            <polygon class="cls-52" points="643.77 825.6 646.19 824.51 657.13 844.33 651.83 846.73 643.77 825.6"/>
            <polygon class="cls-52" points="609.04 838.85 611.55 838.02 620.36 858.88 614.83 860.71 609.04 838.85"/>
            <polygon class="cls-52" points="573.1 848.4 575.68 847.84 582.26 869.51 576.57 870.75 573.1 848.4"/>
            <polygon class="cls-52" points="536.36 854.14 538.99 853.85 543.26 876.09 537.48 876.73 536.36 854.14"/>
          </g>
          <g>
            <polygon class="cls-52" points="330.56 791.07 334.88 793.53 316.79 832.05 307.3 826.63 330.56 791.07"/>
            <polygon class="cls-52" points="462.65 854.03 465.29 854.29 464.88 876.93 459.09 876.36 462.65 854.03"/>
            <polygon class="cls-52" points="425.93 848.18 428.52 848.72 425.75 871.19 420.05 870.02 425.93 848.18"/>
            <polygon class="cls-52" points="390.02 838.52 392.55 839.33 387.43 861.38 381.88 859.62 390.02 838.52"/>
            <polygon class="cls-52" points="355.32 825.16 357.75 826.22 350.35 847.62 345.02 845.29 355.32 825.16"/>
          </g>
          <g>
            <polygon class="cls-52" points="208.46 667.8 210.98 672.1 176.07 696.45 170.56 687.01 208.46 667.8"/>
            <polygon class="cls-52" points="291.5 788.29 293.66 789.83 282 809.24 277.27 805.86 291.5 788.29"/>
            <polygon class="cls-52" points="262.6 764.89 264.58 766.65 250.96 784.74 246.6 780.87 262.6 764.89"/>
            <polygon class="cls-52" points="236.3 738.6 238.09 740.56 222.65 757.12 218.72 752.82 236.3 738.6"/>
            <polygon class="cls-52" points="212.9 709.71 214.47 711.84 197.39 726.69 193.93 722.01 212.9 709.71"/>
          </g>
          <g>
            <polygon class="cls-52" points="164.17 500.05 164.2 505.03 121.81 508.71 121.73 497.78 164.17 500.05"/>
            <polygon class="cls-52" points="176 645.9 177.1 648.31 157.31 659.31 154.9 654.02 176 645.9"/>
            <polygon class="cls-52" points="162.63 611.2 163.47 613.71 142.64 622.59 140.79 617.07 162.63 611.2"/>
            <polygon class="cls-52" points="152.96 575.3 153.53 577.88 131.89 584.53 130.63 578.85 152.96 575.3"/>
            <polygon class="cls-52" points="147.1 538.58 147.4 541.21 125.18 545.56 124.52 539.77 147.1 538.58"/>
          </g>
          <g>
            <polygon class="cls-52" points="210.55 330.77 208.07 335.08 169.61 316.88 175.06 307.4 210.55 330.77"/>
            <polygon class="cls-52" points="147.2 462.67 146.93 465.3 124.3 464.83 124.88 459.04 147.2 462.67"/>
            <polygon class="cls-52" points="153.16 425.96 152.62 428.56 130.15 425.72 131.34 420.02 153.16 425.96"/>
            <polygon class="cls-52" points="162.92 390.09 162.11 392.61 140.07 387.43 141.85 381.89 162.92 390.09"/>
            <polygon class="cls-52" points="176.38 355.43 175.32 357.85 153.94 350.39 156.29 345.07 176.38 355.43"/>
          </g>
          <polygon class="cls-52" points="334.18 209.03 329.87 211.53 305.62 176.56 315.08 171.07 334.18 209.03"/>
          <polygon class="cls-52" points="213.45 291.71 211.9 293.87 192.53 282.15 195.92 277.43 213.45 291.71"/>
          <polygon class="cls-52" points="236.93 262.88 235.16 264.86 217.12 251.18 220.99 246.84 236.93 262.88"/>
          <polygon class="cls-52" points="263.3 236.66 261.34 238.44 244.82 222.96 249.13 219.04 263.3 236.66"/>
          <polygon class="cls-52" points="292.26 213.35 290.13 214.91 275.32 197.78 280.01 194.34 292.26 213.35"/>
          <polygon class="cls-52" points="358.64 175.55 356.22 176.62 345.42 156.72 350.74 154.36 358.64 175.55"/>
          <polygon class="cls-52" points="393.48 162.55 390.95 163.36 382.3 142.44 387.84 140.65 393.48 162.55"/>
          <polygon class="cls-52" points="429.48 153.25 426.89 153.8 420.47 132.09 426.17 130.89 429.48 153.25"/>
          <polygon class="cls-52" points="466.26 147.78 463.63 148.05 459.51 125.79 465.3 125.19 466.26 147.78"/>
        </g>
        <path d="M351.08,782.53c.91-6.2,2.17-12.32,3.8-18.37,1.63-6.05,3.69-11.96,6.18-17.75,2.49-5.78,5.48-11.45,8.96-17.01,3.48-5.55,7.52-10.98,12.14-16.27h-42.97v-6.69h52.61v6.35c-4.08,5.14-7.84,10.21-11.28,15.19-3.44,4.99-6.52,10.25-9.24,15.76-2.72,5.52-5.06,11.43-7.03,17.75-1.97,6.31-3.48,13.32-4.54,21.03h-8.62Z"/>
        <path d="M229.67,654.82c0-4.08,1.13-7.82,3.4-11.22,2.27-3.4,5.21-6.08,8.84-8.05-3.17-1.81-5.71-4.16-7.6-7.03-1.89-2.87-2.83-6.05-2.83-9.52,0-2.72,.62-5.29,1.87-7.71,1.25-2.42,2.93-4.53,5.05-6.35,2.11-1.81,4.59-3.23,7.43-4.25,2.83-1.02,5.87-1.53,9.13-1.53s6.31,.51,9.18,1.53c2.87,1.02,5.37,2.44,7.48,4.25,2.12,1.81,3.8,3.93,5.05,6.35,1.25,2.42,1.87,4.99,1.87,7.71,0,3.4-.95,6.56-2.83,9.47-1.89,2.91-4.42,5.27-7.6,7.09,3.7,1.97,6.69,4.65,8.96,8.05,2.27,3.4,3.4,7.14,3.4,11.22,0,3.1-.66,6.01-1.99,8.73-1.32,2.72-3.14,5.1-5.44,7.14-2.31,2.04-5.01,3.65-8.11,4.82-3.1,1.17-6.43,1.76-9.98,1.76s-6.86-.58-9.92-1.76c-3.06-1.17-5.72-2.78-7.99-4.82-2.27-2.04-4.06-4.42-5.39-7.14-1.32-2.72-1.99-5.63-1.99-8.73Zm8.28,0c0,2.2,.45,4.25,1.36,6.18,.91,1.93,2.11,3.59,3.63,4.99,1.51,1.4,3.3,2.52,5.39,3.35,2.08,.83,4.29,1.24,6.63,1.24s4.57-.41,6.69-1.24c2.12-.83,3.93-1.95,5.44-3.35,1.51-1.4,2.72-3.06,3.63-4.99,.91-1.93,1.36-3.99,1.36-6.18s-.45-4.25-1.36-6.18c-.91-1.93-2.12-3.61-3.63-5.05-1.51-1.44-3.33-2.57-5.44-3.4-2.12-.83-4.35-1.25-6.69-1.25s-4.56,.42-6.63,1.25c-2.08,.83-3.87,1.96-5.39,3.4-1.51,1.44-2.72,3.12-3.63,5.05-.91,1.93-1.36,3.99-1.36,6.18Zm1.93-35.83c0,1.82,.4,3.53,1.19,5.16,.79,1.63,1.87,3.02,3.23,4.19,1.36,1.17,2.97,2.12,4.82,2.84,1.85,.72,3.8,1.08,5.84,1.08s4.1-.36,5.95-1.08c1.85-.72,3.48-1.66,4.87-2.84,1.4-1.17,2.5-2.57,3.29-4.19,.79-1.63,1.19-3.34,1.19-5.16s-.4-3.53-1.19-5.16c-.79-1.63-1.89-3.02-3.29-4.2-1.4-1.17-3.03-2.12-4.87-2.84-1.85-.72-3.84-1.08-5.95-1.08s-3.99,.36-5.84,1.08c-1.85,.72-3.46,1.67-4.82,2.84-1.36,1.17-2.44,2.57-3.23,4.2-.79,1.63-1.19,3.34-1.19,5.16Z"/>
        <g class="cls-53">
          <path class="cls-4" d="M737.51,301.2l-5.79-.1-228.98,192.68c-1.83-.57-3.76-.83-5.68-.78l-.53-.32-12.22-60.37-4.05,.85,11.86,56.88-176.63-105.64-10.87,4.06,3.03,8.62,171.02,116.95-40.73,34.27,15.44,15.98,40.98-36.77c1.45,.27,2.93,.36,4.41,.25l1.43,.98,66.84,320.69,1.62-.34-64.24-317.46,33.53,22.93,17.94-26.4-37.36-22.34,218.84-196.37,.14-8.27Z"/>
          <path class="cls-57" d="M737.58,301.02l-5.79-.1-228.98,192.68c-1.84-.57-3.76-.83-5.68-.78l-.53-.32-12.22-60.37-4.05,.85,11.86,56.88-176.63-105.64-10.87,4.06,3.03,8.62,171.02,116.95-40.73,34.27,15.44,15.98,40.98-36.77c1.45,.27,2.93,.36,4.41,.25l1.43,.98,66.84,320.69,1.62-.34-64.24-317.46,33.53,22.93,17.94-26.4-37.36-22.34,218.84-196.37,.14-8.27Z"/>
          <path class="cls-59" d="M737.66,300.84l-5.79-.1-228.98,192.68c-1.84-.57-3.76-.83-5.68-.78l-.53-.32-12.22-60.37-4.05,.85,11.86,56.88-176.63-105.64-10.87,4.06,3.03,8.62,171.02,116.95-40.73,34.27,15.44,15.98,40.98-36.77c1.45,.27,2.93,.36,4.41,.25l1.43,.98,66.84,320.69,1.62-.34-64.24-317.46,33.53,22.93,17.94-26.4-37.36-22.34,218.84-196.37,.14-8.27Z"/>
          <path class="cls-32" d="M737.73,300.65l-5.79-.1-228.98,192.68c-1.84-.57-3.76-.83-5.68-.78l-.53-.32-12.22-60.37-4.05,.85,11.86,56.88-176.63-105.64-10.87,4.06,3.03,8.62,171.02,116.95-40.73,34.27,15.44,15.98,40.98-36.77c1.45,.27,2.93,.36,4.41,.25l1.43,.98,66.84,320.69,1.62-.34-64.24-317.46,33.53,22.93,17.94-26.4-37.36-22.34,218.84-196.37,.14-8.27Z"/>
          <path class="cls-7" d="M737.8,300.47l-5.79-.1-228.98,192.68c-1.84-.57-3.76-.83-5.68-.78l-.53-.32-12.22-60.37-4.05,.85,11.86,56.88-176.63-105.64-10.87,4.06,3.03,8.62,171.02,116.95-40.73,34.27,15.44,15.98,40.98-36.77c1.45,.27,2.93,.36,4.41,.25l1.43,.98,66.84,320.69,1.62-.34-64.24-317.46,33.53,22.93,17.94-26.4-37.36-22.34,218.84-196.37,.14-8.27Z"/>
          <path class="cls-33" d="M737.87,300.29l-5.79-.1-228.98,192.68c-1.84-.57-3.76-.83-5.68-.78l-.53-.32-12.22-60.37-4.05,.85,11.86,56.88-176.63-105.64-10.87,4.06,3.03,8.62,171.02,116.95-40.73,34.27,15.44,15.98,40.98-36.77c1.45,.27,2.93,.36,4.41,.25l1.43,.98,66.84,320.69,1.62-.34-64.24-317.46,33.53,22.93,17.94-26.4-37.36-22.34,218.84-196.37,.14-8.27Z"/>
          <path class="cls-43" d="M737.95,300.11l-5.79-.1-228.98,192.68c-1.84-.57-3.76-.83-5.68-.78l-.53-.32-12.22-60.37-4.05,.85,11.86,56.88-176.63-105.64-10.87,4.06,3.03,8.62,171.02,116.95-40.73,34.27,15.44,15.98,40.98-36.77c1.45,.27,2.93,.36,4.41,.25l1.43,.98,66.84,320.69,1.62-.34-64.24-317.46,33.53,22.93,17.94-26.4-37.36-22.34,218.84-196.37,.14-8.27Z"/>
          <path class="cls-11" d="M738.02,299.93l-5.79-.1-228.98,192.68c-1.84-.57-3.76-.83-5.68-.78l-.53-.32-12.22-60.37-4.05,.85,11.86,56.88-176.63-105.64-10.87,4.06,3.03,8.62,171.02,116.95-40.73,34.27,15.44,15.98,40.98-36.77c1.45,.27,2.93,.36,4.41,.25l1.43,.98,66.84,320.69,1.62-.34-64.24-317.46,33.53,22.93,17.94-26.4-37.36-22.34,218.84-196.37,.14-8.27Z"/>
          <path class="cls-15" d="M738.09,299.74l-5.79-.1-228.98,192.68c-1.84-.57-3.76-.83-5.68-.78l-.53-.32-12.22-60.37-4.05,.85,11.86,56.88-176.63-105.64-10.87,4.06,3.03,8.62,171.02,116.95-40.73,34.27,15.44,15.98,40.98-36.77c1.45,.27,2.93,.36,4.41,.25l1.43,.98,66.84,320.69,1.62-.34-64.24-317.46,33.53,22.93,17.94-26.4-37.36-22.34,218.84-196.37,.14-8.27Z"/>
          <path class="cls-3" d="M738.17,299.56l-5.79-.1-228.98,192.68c-1.84-.57-3.76-.83-5.68-.78l-.53-.32-12.22-60.37-4.05,.85,11.86,56.88-176.63-105.64-10.87,4.06,3.03,8.62,171.02,116.95-40.73,34.27,15.44,15.98,40.98-36.77c1.45,.27,2.93,.36,4.41,.25l1.43,.98,66.84,320.69,1.62-.34-64.24-317.46,33.53,22.93,17.94-26.4-37.36-22.34,218.84-196.37,.14-8.27Z"/>
          <path class="cls-55" d="M738.24,299.38l-5.79-.1-228.98,192.68c-1.84-.57-3.76-.83-5.68-.78l-.53-.32-12.22-60.37-4.05,.85,11.86,56.88-176.63-105.64-10.87,4.06,3.03,8.62,171.02,116.95-40.73,34.27,15.44,15.98,40.98-36.77c1.45,.27,2.93,.36,4.41,.25l1.43,.98,66.84,320.69,1.62-.34-64.24-317.46,33.53,22.93,17.94-26.4-37.36-22.34,218.84-196.37,.14-8.27Z"/>
          <path class="cls-47" d="M738.31,299.2l-5.79-.1-228.98,192.68c-1.84-.57-3.76-.83-5.68-.78l-.53-.32-12.22-60.37-4.05,.85,11.86,56.88-176.63-105.64-10.87,4.06,3.03,8.62,171.02,116.95-40.73,34.27,15.44,15.98,40.98-36.77c1.45,.27,2.93,.36,4.41,.25l1.43,.98,66.84,320.69,1.62-.34-64.24-317.46,33.53,22.93,17.94-26.4-37.36-22.34,218.84-196.37,.14-8.27Z"/>
          <path class="cls-2" d="M738.39,299.01l-5.79-.1-228.98,192.68c-1.84-.57-3.76-.83-5.68-.78l-.53-.32-12.22-60.37-4.05,.85,11.86,56.88-176.63-105.64-10.87,4.06,3.03,8.62,171.02,116.95-40.73,34.27,15.44,15.98,40.98-36.77c1.45,.27,2.93,.36,4.41,.25l1.43,.98,66.84,320.69,1.62-.34-64.24-317.46,33.53,22.93,17.94-26.4-37.36-22.34,218.84-196.37,.14-8.27Z"/>
          <path class="cls-44" d="M738.46,298.83l-5.79-.1-228.98,192.68c-1.84-.57-3.76-.83-5.68-.78l-.53-.32-12.22-60.37-4.05,.85,11.86,56.88-176.63-105.64-10.87,4.06,3.03,8.62,171.02,116.95-40.73,34.27,15.44,15.98,40.98-36.77c1.45,.27,2.93,.36,4.41,.25l1.43,.98,66.84,320.69,1.62-.34-64.24-317.46,33.53,22.93,17.94-26.4-37.36-22.34,218.84-196.37,.14-8.27Z"/>
          <path class="cls-60" d="M738.53,298.65l-5.79-.1-228.98,192.68c-1.84-.57-3.76-.83-5.68-.78l-.53-.32-12.22-60.37-4.05,.85,11.86,56.88-176.63-105.64-10.87,4.06,3.03,8.62,171.02,116.95-40.73,34.27,15.44,15.98,40.98-36.77c1.45,.27,2.93,.36,4.41,.25l1.43,.98,66.84,320.69,1.62-.34-64.24-317.46,33.53,22.93,17.94-26.4-37.36-22.34,218.84-196.37,.14-8.27Z"/>
          <path class="cls-54" d="M738.6,298.47l-5.79-.1-228.98,192.68c-1.84-.57-3.76-.83-5.68-.78l-.53-.32-12.22-60.37-4.05,.85,11.86,56.88-176.63-105.64-10.87,4.06,3.03,8.62,171.02,116.95-40.73,34.27,15.44,15.98,40.98-36.77c1.45,.27,2.93,.36,4.41,.25l1.43,.98,66.84,320.69,1.62-.34-64.24-317.46,33.53,22.93,17.94-26.4-37.36-22.34,218.84-196.37,.14-8.27Z"/>
          <path class="cls-37" d="M738.68,298.28l-5.79-.1-228.98,192.68c-1.84-.57-3.76-.83-5.68-.78l-.53-.32-12.22-60.37-4.05,.85,11.86,56.88-176.63-105.64-10.87,4.06,3.03,8.62,171.02,116.95-40.73,34.27,15.44,15.98,40.98-36.77c1.45,.27,2.93,.36,4.41,.25l1.43,.98,66.84,320.69,1.62-.34-64.24-317.46,33.53,22.93,17.94-26.4-37.36-22.34,218.84-196.37,.14-8.27Z"/>
          <path class="cls-30" d="M738.75,298.1l-5.79-.1-228.98,192.68c-1.84-.57-3.76-.83-5.68-.78l-.53-.32-12.22-60.37-4.05,.85,11.86,56.88-176.63-105.64-10.87,4.06,3.03,8.62,171.02,116.95-40.73,34.27,15.44,15.98,40.98-36.77c1.45,.27,2.93,.36,4.41,.25l1.43,.98,66.84,320.69,1.62-.34-64.24-317.46,33.53,22.93,17.94-26.4-37.36-22.34,218.84-196.37,.14-8.27Z"/>
          <path class="cls-41" d="M738.82,297.92l-5.79-.1-228.98,192.68c-1.84-.57-3.76-.83-5.68-.78l-.53-.32-12.22-60.37-4.05,.85,11.86,56.88-176.63-105.64-10.87,4.06,3.03,8.62,171.02,116.95-40.73,34.27,15.44,15.98,40.98-36.77c1.45,.27,2.93,.36,4.41,.25l1.43,.98,66.84,320.69,1.62-.34-64.24-317.46,33.53,22.93,17.94-26.4-37.36-22.34,218.84-196.37,.14-8.27Z"/>
          <path class="cls-27" d="M738.9,297.74l-5.79-.1-228.98,192.68c-1.84-.57-3.76-.83-5.68-.78l-.53-.32-12.22-60.37-4.05,.85,11.86,56.88-176.63-105.64-10.87,4.06,3.03,8.62,171.02,116.95-40.73,34.27,15.44,15.98,40.98-36.77c1.45,.27,2.93,.36,4.41,.25l1.43,.98,66.84,320.69,1.62-.34-64.24-317.46,33.53,22.93,17.94-26.4-37.36-22.34,218.84-196.37,.14-8.27Z"/>
          <path class="cls-26" d="M738.97,297.55l-5.79-.1-228.98,192.68c-1.84-.57-3.76-.83-5.68-.78l-.53-.32-12.22-60.37-4.05,.85,11.86,56.88-176.63-105.64-10.87,4.06,3.03,8.62,171.02,116.95-40.73,34.27,15.44,15.98,40.98-36.77c1.45,.27,2.93,.36,4.41,.25l1.43,.98,66.84,320.69,1.62-.34-64.24-317.46,33.53,22.93,17.94-26.4-37.36-22.34,218.84-196.37,.14-8.27Z"/>
          <path class="cls-34" d="M739.04,297.37l-5.79-.1-228.98,192.68c-1.84-.57-3.76-.83-5.68-.78l-.53-.32-12.22-60.37-4.05,.85,11.86,56.88-176.64-105.64-10.87,4.06,3.03,8.62,171.02,116.95-40.73,34.27,15.44,15.98,40.98-36.77c1.45,.27,2.93,.36,4.41,.25l1.43,.98,66.84,320.69,1.62-.34-64.24-317.46,33.53,22.93,17.94-26.4-37.36-22.34,218.84-196.37,.14-8.27Z"/>
          <path class="cls-58" d="M739.12,297.19l-5.79-.1-228.98,192.68c-1.84-.57-3.76-.83-5.68-.78l-.53-.32-12.22-60.37-4.05,.85,11.86,56.88-176.64-105.64-10.87,4.06,3.03,8.62,171.02,116.95-40.73,34.27,15.44,15.98,40.98-36.77c1.45,.27,2.93,.36,4.41,.25l1.43,.98,66.84,320.69,1.62-.34-64.24-317.46,33.53,22.93,17.94-26.4-37.36-22.34,218.84-196.37,.14-8.27Z"/>
          <path class="cls-14" d="M739.19,297.01l-5.79-.1-228.98,192.68c-1.84-.57-3.76-.83-5.68-.78l-.53-.32-12.22-60.37-4.05,.85,11.86,56.88-176.64-105.64-10.87,4.06,3.03,8.62,171.02,116.95-40.73,34.27,15.44,15.98,40.98-36.77c1.45,.27,2.93,.36,4.41,.25l1.43,.98,66.84,320.69,1.62-.34-64.24-317.46,33.53,22.93,17.94-26.4-37.36-22.34,218.84-196.37,.14-8.27Z"/>
          <path class="cls-25" d="M739.26,296.82l-5.79-.1-228.98,192.68c-1.84-.57-3.76-.83-5.68-.78l-.53-.32-12.22-60.37-4.05,.85,11.86,56.88-176.64-105.64-10.87,4.06,3.03,8.62,171.02,116.95-40.73,34.27,15.44,15.98,40.98-36.77c1.45,.27,2.93,.36,4.41,.25l1.43,.98,66.84,320.69,1.62-.34-64.24-317.46,33.53,22.93,17.94-26.4-37.36-22.34,218.84-196.37,.14-8.27Z"/>
          <path class="cls-19" d="M739.33,296.64l-5.79-.1-228.98,192.68c-1.84-.57-3.76-.83-5.68-.78l-.53-.32-12.22-60.37-4.05,.85,11.86,56.88-176.64-105.64-10.87,4.06,3.03,8.62,171.02,116.95-40.73,34.27,15.44,15.98,40.98-36.77c1.45,.27,2.93,.36,4.41,.25l1.43,.98,66.84,320.69,1.62-.34-64.24-317.46,33.53,22.93,17.94-26.4-37.36-22.34,218.84-196.37,.14-8.27Z"/>
          <path class="cls-21" d="M739.41,296.46l-5.79-.1-228.98,192.68c-1.84-.57-3.76-.83-5.68-.78l-.53-.32-12.22-60.37-4.05,.85,11.86,56.88-176.64-105.64-10.87,4.06,3.03,8.62,171.02,116.95-40.73,34.27,15.44,15.98,40.98-36.77c1.45,.27,2.93,.36,4.41,.25l1.43,.98,66.84,320.69,1.62-.34-64.24-317.46,33.53,22.93,17.94-26.4-37.36-22.34,218.84-196.37,.14-8.27Z"/>
          <path class="cls-1" d="M739.48,296.28l-5.79-.1-228.98,192.68c-1.84-.57-3.76-.83-5.68-.78l-.53-.32-12.22-60.37-4.05,.85,11.86,56.88-176.64-105.64-10.87,4.06,3.03,8.62,171.02,116.95-40.73,34.27,15.44,15.98,40.98-36.77c1.45,.27,2.93,.36,4.41,.25l1.43,.98,66.84,320.69,1.62-.34-64.24-317.46,33.53,22.93,17.94-26.4-37.36-22.34,218.84-196.37,.14-8.27Z"/>
          <path class="cls-40" d="M739.55,296.09l-5.79-.1-228.98,192.68c-1.84-.57-3.76-.83-5.68-.78l-.53-.32-12.22-60.37-4.05,.85,11.86,56.88-176.64-105.64-10.87,4.06,3.03,8.62,171.02,116.95-40.73,34.27,15.44,15.98,40.98-36.77c1.45,.27,2.93,.36,4.41,.25l1.43,.98,66.84,320.69,1.62-.34-64.24-317.46,33.53,22.93,17.94-26.4-37.36-22.34,218.84-196.37,.14-8.27Z"/>
          <path class="cls-8" d="M739.63,295.91l-5.79-.1-228.98,192.68c-1.84-.57-3.76-.83-5.68-.78l-.53-.32-12.22-60.37-4.05,.85,11.86,56.88-176.64-105.64-10.87,4.06,3.03,8.62,171.02,116.95-40.73,34.27,15.44,15.98,40.98-36.77c1.45,.27,2.93,.36,4.41,.25l1.43,.98,66.84,320.69,1.62-.34-64.24-317.46,33.53,22.93,17.94-26.4-37.36-22.34,218.84-196.37,.14-8.27Z"/>
          <path class="cls-49" d="M739.7,295.73l-5.79-.1-228.98,192.68c-1.84-.57-3.76-.83-5.68-.78l-.53-.32-12.22-60.37-4.05,.85,11.86,56.88-176.64-105.64-10.87,4.06,3.03,8.62,171.02,116.95-40.73,34.27,15.44,15.98,40.98-36.77c1.45,.27,2.93,.36,4.41,.25l1.43,.98,66.84,320.69,1.62-.34-64.24-317.46,33.53,22.93,17.94-26.4-37.36-22.34,218.84-196.37,.14-8.27Z"/>
          <path class="cls-10" d="M739.77,295.55l-5.79-.1-228.98,192.68c-1.84-.57-3.76-.83-5.68-.78l-.53-.32-12.22-60.37-4.05,.85,11.86,56.88-176.64-105.64-10.87,4.06,3.03,8.62,171.02,116.95-40.73,34.27,15.44,15.98,40.98-36.77c1.45,.27,2.93,.36,4.41,.25l1.43,.98,66.84,320.69,1.62-.34-64.24-317.46,33.53,22.93,17.94-26.4-37.36-22.34,218.84-196.37,.14-8.27Z"/>
          <path class="cls-24" d="M739.85,295.36l-5.79-.1-228.98,192.68c-1.84-.57-3.76-.83-5.68-.78l-.53-.32-12.22-60.37-4.05,.85,11.86,56.88-176.64-105.64-10.87,4.06,3.03,8.62,171.02,116.95-40.73,34.27,15.44,15.98,40.98-36.77c1.45,.27,2.93,.36,4.41,.25l1.43,.98,66.84,320.69,1.62-.34-64.24-317.46,33.53,22.93,17.94-26.4-37.36-22.34,218.84-196.37,.14-8.27Z"/>
          <path class="cls-17" d="M739.92,295.18l-5.79-.1-228.98,192.68c-1.84-.57-3.76-.83-5.68-.78l-.53-.32-12.22-60.37-4.05,.85,11.86,56.88-176.64-105.64-10.87,4.06,3.03,8.62,171.02,116.95-40.73,34.27,15.44,15.98,40.98-36.77c1.45,.27,2.93,.36,4.41,.25l1.43,.98,66.84,320.69,1.62-.34-64.24-317.46,33.53,22.93,17.94-26.4-37.36-22.34,218.84-196.37,.14-8.27Z"/>
          <path class="cls-29" d="M739.99,295l-5.79-.1-228.98,192.68c-1.84-.57-3.76-.83-5.68-.78l-.53-.32-12.22-60.37-4.05,.85,11.86,56.88-176.64-105.64-10.87,4.06,3.03,8.62,171.02,116.95-40.73,34.27,15.44,15.98,40.98-36.77c1.45,.27,2.93,.36,4.41,.25l1.43,.98,66.84,320.69,1.62-.34-64.24-317.46,33.53,22.93,17.94-26.4-37.36-22.34,218.84-196.37,.14-8.27Z"/>
          <path class="cls-36" d="M740.06,294.82l-5.79-.1-228.98,192.68c-1.84-.57-3.76-.83-5.68-.78l-.53-.32-12.22-60.37-4.05,.85,11.86,56.88-176.64-105.64-10.87,4.06,3.03,8.62,171.02,116.95-40.73,34.27,15.44,15.98,40.98-36.77c1.45,.27,2.93,.36,4.41,.25l1.43,.98,66.84,320.69,1.62-.34-64.24-317.46,33.53,22.93,17.94-26.4-37.36-22.34,218.84-196.37,.14-8.27Z"/>
          <path class="cls-51" d="M740.14,294.63l-5.79-.1-228.98,192.68c-1.84-.57-3.76-.83-5.68-.78l-.53-.32-12.22-60.37-4.05,.85,11.86,56.88-176.64-105.64-10.87,4.06,3.03,8.62,171.02,116.95-40.73,34.27,15.44,15.98,40.98-36.77c1.45,.27,2.93,.36,4.41,.25l1.43,.98,66.84,320.69,1.62-.34-64.24-317.46,33.53,22.93,17.94-26.4-37.36-22.34,218.84-196.37,.14-8.27Z"/>
          <path class="cls-6" d="M740.21,294.45l-5.79-.1-228.98,192.68c-1.84-.57-3.76-.83-5.68-.78l-.53-.32-12.22-60.37-4.05,.85,11.86,56.88-176.64-105.64-10.87,4.06,3.03,8.62,171.02,116.95-40.73,34.27,15.44,15.98,40.98-36.77c1.45,.27,2.93,.36,4.41,.25l1.43,.98,66.84,320.69,1.62-.34-64.24-317.46,33.53,22.93,17.94-26.4-37.36-22.34,218.84-196.37,.14-8.27Z"/>
          <path class="cls-23" d="M740.28,294.27l-5.79-.1-228.98,192.68c-1.84-.57-3.76-.83-5.68-.78l-.53-.32-12.22-60.37-4.05,.85,11.86,56.88-176.64-105.64-10.87,4.06,3.03,8.62,171.02,116.95-40.73,34.27,15.44,15.98,40.98-36.77c1.45,.27,2.93,.36,4.41,.25l1.43,.98,66.84,320.69,1.62-.34-64.24-317.46,33.53,22.93,17.94-26.4-37.36-22.34,218.84-196.37,.14-8.27Z"/>
          <path class="cls-48" d="M740.36,294.09l-5.79-.1-228.98,192.68c-1.84-.57-3.76-.83-5.68-.78l-.53-.32-12.22-60.37-4.05,.85,11.86,56.88-176.64-105.64-10.87,4.06,3.03,8.62,171.02,116.95-40.73,34.27,15.44,15.98,40.98-36.77c1.45,.27,2.93,.35,4.41,.25l1.43,.98,66.84,320.69,1.62-.34-64.24-317.46,33.53,22.93,17.94-26.4-37.36-22.34,218.84-196.37,.14-8.27Z"/>
          <path class="cls-50" d="M740.43,293.9l-5.79-.1-228.98,192.68c-1.84-.57-3.76-.83-5.68-.78l-.53-.32-12.22-60.37-4.05,.85,11.86,56.88-176.64-105.64-10.87,4.06,3.03,8.62,171.02,116.95-40.73,34.27,15.44,15.98,40.98-36.77c1.45,.27,2.93,.35,4.41,.25l1.43,.98,66.84,320.69,1.62-.34-64.24-317.46,33.53,22.93,17.94-26.4-37.36-22.34,218.84-196.37,.14-8.27Z"/>
          <path class="cls-42" d="M740.5,293.72l-5.79-.1-228.98,192.68c-1.84-.57-3.76-.83-5.68-.78l-.53-.32-12.22-60.37-4.05,.85,11.86,56.88-176.64-105.64-10.87,4.06,3.03,8.62,171.02,116.95-40.73,34.27,15.44,15.98,40.98-36.77c1.45,.27,2.93,.35,4.41,.25l1.43,.98,66.84,320.69,1.62-.34-64.24-317.46,33.53,22.93,17.94-26.4-37.36-22.34,218.84-196.37,.14-8.27Z"/>
          <path class="cls-9" d="M740.58,293.54l-5.79-.1-228.98,192.68c-1.84-.57-3.76-.83-5.68-.78l-.53-.32-12.22-60.37-4.05,.85,11.86,56.88-176.64-105.64-10.87,4.06,3.03,8.62,171.02,116.95-40.73,34.27,15.44,15.98,40.98-36.77c1.45,.27,2.93,.35,4.41,.25l1.43,.98,66.84,320.69,1.62-.34-64.24-317.46,33.53,22.93,17.94-26.4-37.36-22.34,218.84-196.37,.14-8.27Z"/>
          <path class="cls-18" d="M740.65,293.36l-5.79-.1-228.98,192.68c-1.84-.57-3.76-.83-5.68-.78l-.53-.32-12.22-60.37-4.05,.85,11.86,56.88-176.64-105.64-10.87,4.06,3.03,8.62,171.02,116.95-40.73,34.27,15.44,15.98,40.98-36.77c1.45,.27,2.93,.35,4.41,.25l1.43,.98,66.84,320.69,1.62-.34-64.24-317.46,33.53,22.93,17.94-26.4-37.36-22.34,218.84-196.37,.14-8.27Z"/>
          <path class="cls-31" d="M740.72,293.17l-5.79-.1-228.98,192.68c-1.84-.57-3.76-.83-5.68-.78l-.53-.32-12.22-60.37-4.05,.85,11.86,56.88-176.64-105.64-10.87,4.06,3.03,8.62,171.02,116.95-40.73,34.27,15.44,15.98,40.98-36.77c1.45,.27,2.93,.35,4.41,.25l1.43,.98,66.84,320.69,1.62-.34-64.24-317.46,33.53,22.93,17.94-26.4-37.36-22.34,218.84-196.37,.14-8.27Z"/>
          <path class="cls-20" d="M740.79,292.99l-5.79-.1-228.98,192.68c-1.84-.57-3.76-.83-5.68-.78l-.53-.32-12.22-60.37-4.05,.85,11.86,56.88-176.64-105.64-10.87,4.06,3.03,8.62,171.02,116.95-40.73,34.27,15.44,15.98,40.98-36.77c1.45,.27,2.93,.35,4.41,.25l1.43,.98,66.84,320.69,1.62-.34-64.24-317.46,33.53,22.93,17.94-26.4-37.36-22.34,218.84-196.37,.14-8.27Z"/>
          <path class="cls-5" d="M740.87,292.81l-5.79-.1-228.98,192.68c-1.84-.57-3.76-.83-5.68-.78l-.53-.32-12.22-60.37-4.05,.85,11.86,56.88-176.64-105.64-10.87,4.06,3.03,8.62,171.02,116.95-40.73,34.27,15.44,15.98,40.98-36.77c1.45,.27,2.93,.35,4.41,.25l1.43,.98,66.84,320.69,1.62-.34-64.24-317.46,33.53,22.93,17.94-26.4-37.36-22.34,218.84-196.37,.14-8.27Z"/>
          <path class="cls-56" d="M740.94,292.63l-5.79-.1-228.98,192.68c-1.84-.57-3.76-.83-5.68-.78l-.53-.32-12.22-60.37-4.05,.85,11.86,56.88-176.64-105.64-10.87,4.06,3.03,8.62,171.02,116.95-40.73,34.27,15.44,15.98,40.98-36.77c1.45,.27,2.93,.35,4.41,.25l1.43,.98,66.84,320.69,1.62-.34-64.24-317.46,33.53,22.93,17.94-26.4-37.36-22.34,218.84-196.37,.14-8.27Z"/>
          <path class="cls-22" d="M741.01,292.45l-5.79-.1-228.98,192.68c-1.84-.57-3.76-.83-5.68-.78l-.53-.32-12.22-60.37-4.05,.85,11.86,56.88-176.64-105.64-10.87,4.06,3.03,8.62,171.02,116.95-40.73,34.27,15.44,15.98,40.98-36.77c1.45,.27,2.93,.35,4.41,.25l1.43,.98,66.84,320.69,1.62-.34-64.24-317.46,33.53,22.93,17.94-26.4-37.36-22.34,218.84-196.37,.14-8.27Z"/>
          <path class="cls-46" d="M741.09,292.26l-5.79-.1-228.98,192.68c-1.84-.57-3.76-.83-5.68-.78l-.53-.32-12.22-60.37-4.05,.85,11.86,56.88-176.64-105.64-10.87,4.06,3.03,8.62,171.02,116.95-40.73,34.27,15.44,15.98,40.98-36.77c1.45,.27,2.93,.35,4.41,.25l1.43,.98,66.84,320.69,1.62-.34-64.24-317.46,33.53,22.93,17.94-26.4-37.36-22.34,218.84-196.37,.14-8.27Z"/>
          <path class="cls-13" d="M741.16,292.08l-5.79-.1-228.98,192.68c-1.84-.57-3.76-.83-5.68-.78l-.53-.32-12.22-60.37-4.05,.85,11.86,56.88-176.64-105.64-10.87,4.06,3.03,8.62,171.02,116.95-40.73,34.27,15.44,15.98,40.98-36.77c1.45,.27,2.93,.35,4.41,.25l1.43,.98,66.84,320.69,1.62-.34-64.24-317.46,33.53,22.93,17.94-26.4-37.36-22.34,218.84-196.37,.14-8.27Z"/>
          <path class="cls-12" d="M741.23,291.9l-5.79-.1-228.98,192.68c-1.84-.57-3.76-.83-5.68-.78l-.53-.32-12.22-60.37-4.05,.85,11.86,56.88-176.64-105.64-10.87,4.06,3.03,8.62,171.02,116.95-40.73,34.27,15.44,15.98,40.98-36.77c1.45,.27,2.93,.35,4.41,.25l1.43,.98,66.84,320.69,1.62-.34-64.24-317.46,33.53,22.93,17.94-26.4-37.36-22.34,218.84-196.37,.14-8.27Z"/>
        </g>
        <path class="cls-38" d="M524.99,501.09c0,13.78-11.17,24.96-24.96,24.96s-24.96-11.17-24.96-24.96,11.17-24.96,24.96-24.96,24.96,11.17,24.96,24.96Z"/>
        <polygon class="cls-52" points="734.24 291.8 741.27 291.9 739.89 300.17 455.9 554.99 440.46 539.01 734.24 291.8"/>
        <polygon class="cls-52" points="540.46 545.27 558.4 518.87 318.01 375.1 307.14 376.68 310.17 387.78 540.46 545.27"/>
        <circle class="cls-28" cx="500.03" cy="501.09" r="17.44" transform="translate(-14.02 987.79) rotate(-88.5)"/>
        <path class="cls-35" d="M500.03,486.48c-8.07,0-14.6,6.54-14.6,14.6s6.54,14.6,14.6,14.6,14.6-6.54,14.6-14.6-6.54-14.6-14.6-14.6Z"/>
        <g>
          <path class="cls-45" d="M488.2,509.65c-4.73-6.53-3.27-15.66,3.27-20.39,1.38-1,2.88-1.71,4.42-2.16l-.59-2.77c-1.92,.54-3.79,1.4-5.5,2.64-7.8,5.65-9.55,16.55-3.9,24.35,3.94,5.45,10.43,7.93,16.65,7.03l-.59-2.77c-5.15,.68-10.5-1.41-13.77-5.91Z"/>
          <path class="cls-45" d="M499.03,483.69l.58,2.8c4.67-.13,9.31,1.97,12.26,6.03,4.73,6.54,3.27,15.66-3.26,20.4-1,.72-2.06,1.28-3.16,1.72l.58,2.82c1.47-.54,2.9-1.27,4.24-2.23,7.8-5.65,9.55-16.55,3.9-24.35-3.62-5-9.4-7.5-15.13-7.17Z"/>
          <path class="cls-45" d="M486.46,423.08l-4.04,.87,12.89,60.38c1.22-.34,2.47-.56,3.72-.63l-12.57-60.62Z"/>
          <path class="cls-45" d="M571.16,839.81l1.62-.35-66.75-322.01c-1.13,.42-2.29,.71-3.46,.89l68.6,321.47Z"/>
        </g>
        <path d="M644.06,302.94v-62.02c-3.55,5.07-7.46,8.62-11.73,10.66-4.27,2.04-9.36,3.06-15.25,3.06v-8.05c4.54,0,8.49-.74,11.85-2.21,3.36-1.47,6.18-3.27,8.45-5.38s3.95-4.38,5.05-6.81c1.09-2.42,1.64-4.53,1.64-6.35h7.94v77.1h-7.94Z"/>
        <path d="M723.43,346.96c.38-3.48,1.28-6.65,2.72-9.52,1.44-2.87,3.29-5.31,5.56-7.31,2.27-2,4.93-3.55,7.99-4.65,3.06-1.1,6.44-1.64,10.15-1.64s7.26,.59,10.21,1.76c2.95,1.17,5.42,2.76,7.43,4.76,2,2,3.5,4.29,4.48,6.86,.98,2.57,1.47,5.21,1.47,7.94,0,3.17-.59,5.99-1.76,8.45-1.17,2.46-2.7,4.72-4.59,6.8-1.89,2.08-4.08,4.01-6.58,5.78-2.5,1.78-5.03,3.57-7.6,5.38-2.34,1.59-4.59,3.17-6.75,4.76-2.15,1.59-4.1,3.21-5.84,4.87-1.74,1.66-3.29,3.46-4.65,5.39-1.36,1.93-2.42,4.03-3.18,6.29h40.93v8.05h-49.89v-7.6c.83-3.1,2.14-5.94,3.91-8.5,1.78-2.57,3.78-4.97,6.01-7.2,2.23-2.23,4.61-4.29,7.15-6.18,2.53-1.89,5.01-3.67,7.42-5.33,2.12-1.51,4.2-3.02,6.24-4.54,2.04-1.51,3.86-3.08,5.44-4.7,1.59-1.63,2.87-3.29,3.86-4.99,.98-1.7,1.47-3.5,1.47-5.39,0-2.64-.4-4.97-1.19-6.97-.79-2-1.87-3.69-3.23-5.05-1.36-1.36-2.97-2.38-4.82-3.06-1.85-.68-3.84-1.02-5.96-1.02-5.06,0-9.18,1.46-12.36,4.37-3.17,2.91-4.92,6.97-5.22,12.19h-8.84Z"/>
        <path d="M770.4,486.67c.53-2.87,1.38-5.61,2.55-8.22,1.17-2.61,2.74-4.91,4.71-6.92,1.96-2,4.35-3.61,7.14-4.82,2.79-1.21,6.08-1.81,9.86-1.81,3.48,0,6.58,.49,9.3,1.48,2.72,.98,5.05,2.34,6.98,4.08,1.93,1.74,3.4,3.8,4.42,6.18,1.02,2.38,1.53,4.97,1.53,7.77,0,3.78-.94,7.13-2.83,10.03-1.89,2.91-4.65,5.2-8.28,6.86,4.38,1.59,7.94,3.95,10.66,7.09,2.72,3.14,4.08,7.35,4.08,12.64,0,3.63-.68,6.8-2.04,9.52-1.36,2.72-3.18,5.01-5.44,6.86-2.27,1.85-4.92,3.25-7.94,4.2-3.02,.94-6.24,1.42-9.64,1.42-7.26,0-13.23-2.06-17.92-6.18-4.69-4.12-7.83-9.96-9.41-17.52h8.73c.6,3.25,1.57,5.97,2.89,8.17,1.32,2.2,2.83,3.93,4.53,5.22,1.7,1.29,3.52,2.21,5.45,2.78,1.93,.57,3.83,.85,5.73,.85,2.04,0,4.04-.35,6.01-1.07,1.96-.72,3.74-1.74,5.33-3.06,1.59-1.32,2.87-2.93,3.86-4.82,.98-1.89,1.47-4.01,1.47-6.35s-.42-4.37-1.25-6.29c-.83-1.93-2-3.61-3.52-5.04-1.51-1.44-3.35-2.57-5.5-3.4-2.16-.83-4.56-1.25-7.2-1.25h-4.99v-7.37h4.99c2.57,0,4.74-.36,6.52-1.08,1.78-.72,3.21-1.68,4.31-2.89,1.09-1.21,1.89-2.55,2.38-4.02,.49-1.47,.74-3,.74-4.59,0-4.23-1.25-7.56-3.74-9.98-2.49-2.42-5.9-3.63-10.21-3.63-2.42,0-4.56,.44-6.41,1.3-1.85,.87-3.42,2.02-4.71,3.46-1.29,1.44-2.32,3.06-3.12,4.88-.79,1.81-1.3,3.67-1.53,5.56h-8.5Z"/>
        <path d="M750.49,674.47v-19.05h-35.15v-9.41l34.59-47.62h8.5v50.46h11.22v6.58h-11.22v19.05h-7.94Zm-28.24-25.62h28.24v-39.69l-28.24,39.69Z"/>
        <path d="M619.67,745.56l5.1-39.8h40.71v6.69h-34.36c-.45,4.16-.95,8.18-1.47,12.08-.53,3.89-1.06,7.96-1.59,12.19,1.59-1.21,3.21-2.15,4.88-2.84,1.66-.68,3.25-1.19,4.76-1.53,1.51-.34,2.89-.55,4.14-.62,1.25-.08,2.21-.11,2.89-.11,3.63,0,6.97,.66,10.04,1.98,3.06,1.32,5.71,3.16,7.94,5.5,2.23,2.34,3.97,5.07,5.21,8.16,1.25,3.1,1.87,6.43,1.87,9.98,0,3.33-.55,6.52-1.64,9.58-1.1,3.06-2.76,5.8-4.99,8.22-2.23,2.42-5.05,4.35-8.45,5.78-3.4,1.43-7.41,2.15-12.02,2.15-6.12,0-11.47-1.66-16.04-4.99-4.58-3.33-7.65-8.35-9.24-15.08h8.62c1.29,4.31,3.5,7.62,6.63,9.92,3.14,2.31,6.52,3.46,10.15,3.46,2.57,0,4.97-.49,7.2-1.47,2.23-.98,4.2-2.33,5.9-4.03,1.7-1.7,3.04-3.7,4.02-6.01,.98-2.3,1.47-4.82,1.47-7.54s-.53-5.23-1.59-7.54c-1.06-2.3-2.46-4.29-4.2-5.95-1.74-1.66-3.72-2.95-5.95-3.86-2.23-.91-4.52-1.36-6.86-1.36-2.65,0-5.41,.62-8.28,1.87-2.87,1.25-5.18,2.97-6.92,5.16h-7.94Z"/>
        <path d="M516.81,757.04c-.3-1.44-.87-2.85-1.7-4.25-.83-1.4-1.89-2.65-3.17-3.74-1.29-1.09-2.78-1.98-4.48-2.67-1.7-.68-3.57-1.02-5.61-1.02-3.85,0-7.07,1.08-9.64,3.23-2.57,2.16-4.63,4.88-6.18,8.17-1.55,3.29-2.64,6.86-3.29,10.71-.64,3.86-1,7.48-1.08,10.88,1.14-2.27,2.53-4.16,4.2-5.67,1.66-1.51,3.4-2.74,5.22-3.69,1.81-.95,3.61-1.6,5.38-1.98,1.78-.38,3.35-.57,4.71-.57,3.7,0,7.07,.66,10.09,1.98,3.02,1.32,5.58,3.14,7.66,5.44,2.08,2.31,3.68,5.03,4.82,8.16,1.13,3.14,1.7,6.52,1.7,10.15,0,3.33-.55,6.5-1.65,9.52-1.09,3.02-2.68,5.67-4.76,7.94-2.08,2.27-4.61,4.06-7.6,5.39-2.99,1.32-6.37,1.98-10.15,1.98-8.24,0-14.82-2.98-19.73-8.96-4.91-5.97-7.37-14.78-7.37-26.42,0-7.41,.64-13.79,1.93-19.16,1.29-5.37,3.12-9.81,5.5-13.32,2.38-3.52,5.27-6.12,8.67-7.83,3.4-1.7,7.18-2.55,11.34-2.55,3.4,0,6.43,.51,9.07,1.53,2.64,1.02,4.93,2.38,6.86,4.08,1.93,1.7,3.48,3.65,4.65,5.84,1.17,2.19,1.94,4.46,2.33,6.8h-7.71Zm-15.54,53.29c2.27,0,4.37-.47,6.29-1.42,1.92-.94,3.59-2.23,4.99-3.86,1.4-1.62,2.5-3.55,3.29-5.78,.79-2.23,1.19-4.59,1.19-7.09s-.38-4.75-1.13-6.97c-.76-2.23-1.84-4.2-3.23-5.89-1.4-1.7-3.08-3.04-5.05-4.03-1.96-.98-4.12-1.47-6.46-1.47-2.8,0-5.24,.57-7.32,1.7-2.08,1.14-3.8,2.57-5.16,4.31-1.36,1.74-2.38,3.69-3.06,5.84-.68,2.16-1.02,4.25-1.02,6.29,0,2.65,.45,5.08,1.36,7.31,.91,2.23,2.13,4.18,3.68,5.84,1.55,1.66,3.33,2.95,5.33,3.85,2,.91,4.1,1.36,6.29,1.36Z"/>
        <path d="M193.83,523c.3,1.44,.87,2.85,1.7,4.25,.83,1.4,1.89,2.65,3.17,3.74,1.28,1.09,2.8,1.98,4.54,2.66,1.74,.68,3.63,1.02,5.67,1.02,3.86,0,7.07-1.07,9.64-3.23,2.57-2.15,4.61-4.88,6.12-8.16,1.51-3.29,2.57-6.84,3.17-10.66,.6-3.81,.94-7.43,1.02-10.83-1.21,2.19-2.65,4.04-4.31,5.56-1.66,1.51-3.38,2.74-5.16,3.69-1.78,.94-3.53,1.62-5.27,2.04-1.74,.42-3.29,.62-4.65,.62-3.78,0-7.14-.66-10.09-1.98-2.95-1.32-5.48-3.13-7.6-5.44-2.12-2.31-3.72-5.03-4.82-8.17-1.1-3.13-1.64-6.56-1.64-10.26,0-3.32,.55-6.48,1.64-9.47,1.1-2.98,2.69-5.61,4.76-7.88,2.08-2.27,4.61-4.06,7.6-5.39,2.98-1.32,6.37-1.98,10.15-1.98,8.24,0,14.82,2.97,19.73,8.9,4.91,5.94,7.37,14.72,7.37,26.36,0,7.41-.64,13.82-1.93,19.22-1.29,5.4-3.12,9.86-5.5,13.38-2.38,3.51-5.27,6.12-8.67,7.82-3.4,1.7-7.18,2.55-11.34,2.55-3.4,0-6.45-.51-9.13-1.53-2.68-1.02-4.99-2.38-6.92-4.08-1.93-1.7-3.46-3.67-4.59-5.9-1.13-2.23-1.89-4.52-2.27-6.86h7.6Zm15.65-53.29c-2.27,0-4.38,.47-6.35,1.42-1.97,.95-3.64,2.23-5.05,3.86-1.4,1.63-2.49,3.55-3.29,5.78-.79,2.23-1.19,4.59-1.19,7.09s.37,4.84,1.13,7.03c.76,2.19,1.83,4.14,3.23,5.84,1.4,1.7,3.06,3.04,4.99,4.03,1.93,.98,4.1,1.47,6.52,1.47,2.8,0,5.25-.55,7.37-1.64,2.11-1.09,3.85-2.53,5.21-4.31,1.36-1.77,2.38-3.74,3.06-5.89,.68-2.16,1.02-4.25,1.02-6.29,0-2.65-.45-5.08-1.36-7.31-.91-2.23-2.14-4.18-3.68-5.84-1.55-1.66-3.33-2.95-5.33-3.86-2-.91-4.1-1.36-6.29-1.36Z"/>
        <g>
          <path d="M233.66,401.49v-62.02c-3.05,5.07-6.4,8.62-10.06,10.66-3.66,2.04-8.02,3.06-13.08,3.06v-8.05c3.89,0,7.28-.74,10.16-2.21,2.88-1.47,5.3-3.27,7.25-5.38,1.95-2.12,3.39-4.38,4.33-6.81,.94-2.42,1.41-4.54,1.41-6.35h6.81v77.1h-6.81Z"/>
          <path d="M304.44,362.94c0,5.9-.49,11.23-1.46,15.99-.97,4.76-2.4,8.83-4.28,12.19-1.88,3.36-4.23,5.94-7.05,7.71-2.82,1.78-6.08,2.66-9.77,2.66s-6.94-.89-9.72-2.66c-2.79-1.78-5.14-4.35-7.05-7.71-1.91-3.36-3.34-7.43-4.28-12.19-.94-4.76-1.41-10.09-1.41-15.99s.47-11.22,1.41-15.99c.94-4.76,2.37-8.82,4.28-12.19,1.91-3.36,4.26-5.93,7.05-7.71,2.79-1.78,6.03-2.67,9.72-2.67s6.95,.89,9.77,2.67c2.82,1.78,5.17,4.35,7.05,7.71,1.88,3.36,3.31,7.43,4.28,12.19,.97,4.76,1.46,10.09,1.46,15.99Zm-37.92,0c0,5.67,.41,10.51,1.22,14.52,.81,4.01,1.89,7.31,3.26,9.92,1.36,2.61,2.98,4.52,4.86,5.73,1.88,1.21,3.89,1.81,6.03,1.81s4.15-.6,6.03-1.81c1.88-1.21,3.5-3.12,4.86-5.73,1.36-2.61,2.45-5.91,3.26-9.92,.81-4.01,1.22-8.85,1.22-14.52s-.41-10.52-1.22-14.57c-.81-4.04-1.9-7.37-3.26-9.98-1.36-2.61-2.98-4.51-4.86-5.73-1.88-1.21-3.89-1.81-6.03-1.81s-4.15,.61-6.03,1.81c-1.88,1.21-3.5,3.12-4.86,5.73-1.36,2.61-2.45,5.94-3.26,9.98-.81,4.05-1.22,8.9-1.22,14.57Z"/>
        </g>
        <g>
          <path d="M334.34,300.69v-62.02c-3.05,5.07-6.4,8.62-10.06,10.66-3.66,2.04-8.02,3.06-13.08,3.06v-8.05c3.89,0,7.28-.74,10.16-2.21,2.88-1.47,5.3-3.27,7.24-5.39,1.95-2.12,3.39-4.38,4.33-6.81,.94-2.42,1.41-4.53,1.41-6.35h6.81v77.1h-6.81Z"/>
          <path d="M388.79,300.69v-62.02c-3.05,5.07-6.4,8.62-10.06,10.66-3.66,2.04-8.02,3.06-13.08,3.06v-8.05c3.89,0,7.28-.74,10.16-2.21,2.88-1.47,5.3-3.27,7.24-5.39,1.94-2.12,3.39-4.38,4.33-6.81,.94-2.42,1.41-4.53,1.41-6.35h6.81v77.1h-6.81Z"/>
        </g>
        <g>
          <path d="M476.13,263.47v-62.02c-3.05,5.07-6.4,8.62-10.06,10.66-3.66,2.04-8.02,3.06-13.08,3.06v-8.05c3.89,0,7.28-.74,10.16-2.21,2.88-1.47,5.3-3.27,7.24-5.38,1.94-2.12,3.39-4.38,4.33-6.81,.94-2.42,1.41-4.53,1.41-6.35h6.81v77.1h-6.81Z"/>
          <path d="M502.88,209.5c.32-3.48,1.1-6.65,2.33-9.52,1.23-2.87,2.82-5.31,4.77-7.31,1.95-2,4.23-3.55,6.86-4.65,2.62-1.1,5.52-1.64,8.7-1.64s6.22,.59,8.75,1.76c2.53,1.17,4.65,2.76,6.37,4.76,1.72,2,3,4.29,3.84,6.86,.84,2.57,1.26,5.21,1.26,7.94,0,3.17-.5,5.99-1.51,8.45-1,2.46-2.32,4.72-3.93,6.8-1.62,2.08-3.5,4.01-5.64,5.78-2.14,1.78-4.31,3.57-6.52,5.39-2.01,1.59-3.94,3.17-5.79,4.76-1.84,1.59-3.51,3.21-5,4.87-1.49,1.67-2.82,3.46-3.99,5.39-1.17,1.93-2.07,4.02-2.72,6.29h35.1v8.05h-42.78v-7.6c.71-3.1,1.83-5.93,3.36-8.5,1.52-2.57,3.24-4.97,5.15-7.2,1.91-2.23,3.95-4.29,6.13-6.18,2.17-1.89,4.29-3.67,6.37-5.33,1.81-1.51,3.6-3.02,5.35-4.54,1.75-1.51,3.31-3.08,4.67-4.7,1.36-1.63,2.46-3.29,3.31-4.99,.84-1.7,1.26-3.5,1.26-5.39,0-2.64-.34-4.97-1.02-6.97-.68-2-1.61-3.69-2.77-5.05-1.16-1.36-2.54-2.38-4.13-3.06-1.59-.68-3.29-1.02-5.1-1.02-4.34,0-7.88,1.46-10.6,4.37-2.72,2.91-4.21,6.97-4.47,12.19h-7.58Z"/>
        </g>
      </g>
    </g>
  </g>
</svg>