<?xml version="1.0" encoding="UTF-8"?>
<svg id="Layer_2" data-name="Layer 2" xmlns="http://www.w3.org/2000/svg" viewBox="0 0 288.58 288.32">
  <defs>
    <style>
      .cls-1 {
        fill: #999;
      } 
    </style>
  </defs>
  <g id="Layer_1-2" data-name="Layer 1">
    <g>
      <g>
        <path class="number" d="M262.42,71.58c0-1.34-1.08-2.12-2.89-2.12-1.48,0-3.22,.78-4.63,2.05l-1.13-2.14c1.83-1.46,3.97-2.35,6.14-2.35,3.22,0,5.41,1.62,5.41,4.16,0,1.65-1.29,3.5-3.11,5.39l-4.52,4.56h8.42v2.49h-12.07v-2.05l6.28-6.49c1.25-1.25,2.09-2.56,2.09-3.5Z"/>
        <path class="number" d="M262.07,201.09l-5.46,9.95h5.06l-.02-3.88h2.59l.02,3.88h2.42v2.49h-2.45v4.05h-2.59v-4.05h-8.02v-2.07l5.76-10.37h2.68Z"/>
        <path class="number" d="M145.46,273.9c-3.2,0-4.7,2.4-4.59,5.97,.87-1.55,2.42-2.35,4.49-2.35,3.29,0,5.32,2.05,5.32,5.27,0,3.41-2.31,5.53-5.81,5.53-4.16,0-6.7-2.96-6.7-8.02s2.75-8.7,7.1-8.7c1.62,0,3.58,.49,4.92,1.25l-1.08,2.09c-1.01-.66-2.4-1.03-3.65-1.03Zm-4.14,8.96c-.02,1.43,1.03,3.08,3.41,3.08,2,0,3.36-1.18,3.36-3.18,0-1.88-1.25-3.06-3.25-3.06-2.23,0-3.55,1.46-3.53,3.15Z"/>
        <path class="number" d="M32.96,207.41c0,1.58-.92,2.85-2.4,3.5,1.98,.68,3.22,2.21,3.22,4.19,0,2.94-2.42,4.75-6.28,4.75s-6.28-1.79-6.28-4.7c0-2,1.29-3.55,3.34-4.23-1.58-.71-2.54-2.02-2.54-3.62,0-2.56,2.12-4.16,5.46-4.16s5.48,1.62,5.48,4.28Zm-9.13,7.43c0,1.81,1.34,2.82,3.67,2.82s3.67-1.01,3.67-2.8-1.36-2.73-3.69-2.73-3.65,.99-3.65,2.7Zm.54-7.29c0,1.53,1.15,2.42,3.13,2.42s3.1-.89,3.1-2.42-1.13-2.42-3.1-2.42-3.13,.89-3.13,2.42Z"/>
        <g>
          <path class="number" d="M21.89,67.14v16.49h-2.78v-14h-3.55v-2.49h6.33Z"/>
          <path class="number" d="M41.03,75.37c0,5.36-2.21,8.33-6.19,8.33s-6.21-2.96-6.21-8.33,2.21-8.3,6.21-8.3,6.19,2.96,6.19,8.3Zm-9.64,0c0,4.19,1.15,6.16,3.46,6.16s3.43-1.98,3.43-6.16-1.15-6.14-3.43-6.14-3.46,1.95-3.46,6.14Z"/>
        </g>
        <g>
          <path class="number" d="M138.58,.12V16.61h-2.78V2.61h-3.55V.12h6.33Z"/>
          <path class="number" d="M153.86,4.56c0-1.34-1.08-2.12-2.89-2.12-1.48,0-3.22,.78-4.63,2.05l-1.13-2.14c1.83-1.46,3.98-2.35,6.14-2.35,3.22,0,5.41,1.62,5.41,4.16,0,1.65-1.29,3.5-3.11,5.39l-4.52,4.56h8.42v2.49h-12.07v-2.05l6.28-6.49c1.25-1.25,2.09-2.56,2.09-3.5Z"/>
        </g>
      </g>
      <g>
        <rect class="cls-1" x="202.85" y="25.89" width="18.08" height="3.08" transform="translate(82.19 197.22) rotate(-60)"/>
        <rect class="cls-1" x="210.39" y="252.65" width="3.08" height="18.08" transform="translate(-102.45 141.03) rotate(-30)"/>
        <rect class="cls-1" x="67.64" y="260.17" width="18.08" height="3.08" transform="translate(-188.3 197.26) rotate(-60)"/>
        <rect class="cls-1" x="75.11" y="18.41" width="3.08" height="18.08" transform="translate(-3.46 42) rotate(-30)"/>
        <rect class="cls-1" x="277.99" y="135.22" width="3.08" height="18.08" transform="translate(134.86 423.58) rotate(-89.91)"/>
        <rect class="cls-1" x="7.5" y="134.86" width="3.08" height="18.08" transform="translate(-134.87 152.73) rotate(-89.91)"/>
      </g>
    </g>
  </g>
</svg>