<svg width="16" height="17" viewBox="0 0 16 17" fill="none" xmlns="http://www.w3.org/2000/svg">
<g clip-path="url(#clip0_349_397)">
<path d="M2 4.5H3.33333H14" stroke="#454545" stroke-width="1" stroke-linecap="round" stroke-linejoin="round"/>
<path d="M12.6666 4.50016V13.8335C12.6666 14.1871 12.5261 14.5263 12.2761 14.7763C12.026 15.0264 11.6869 15.1668 11.3333 15.1668H4.66659C4.31296 15.1668 3.97382 15.0264 3.72378 14.7763C3.47373 14.5263 3.33325 14.1871 3.33325 13.8335V4.50016M5.33325 4.50016V3.16683C5.33325 2.81321 5.47373 2.47407 5.72378 2.22402C5.97382 1.97397 6.31296 1.8335 6.66659 1.8335H9.33325C9.68687 1.8335 10.026 1.97397 10.2761 2.22402C10.5261 2.47407 10.6666 2.81321 10.6666 3.16683V4.50016" stroke="#454545" stroke-width="1" stroke-linecap="round" stroke-linejoin="round"/>
<path d="M6.66675 7.8335V11.8335" stroke="#454545" stroke-width="1" stroke-linecap="round" stroke-linejoin="round"/>
<path d="M9.33325 7.8335V11.8335" stroke="#454545" stroke-width="1" stroke-linecap="round" stroke-linejoin="round"/>
</g>
<defs>
<clipPath id="clip0_349_397">
<rect width="16" height="16" fill="white" transform="translate(0 0.5)"/>
</clipPath>
</defs>
</svg>
