<?xml version="1.0" encoding="iso-8859-1"?>
<!-- Generator: Adobe Illustrator 19.0.0, SVG Export Plug-In . SVG Version: 6.00 Build 0)  -->
<svg version="1.1" id="Capa_1" xmlns="http://www.w3.org/2000/svg" xmlns:xlink="http://www.w3.org/1999/xlink" x="0px" y="0px"
	 viewBox="0 0 512 512" style="enable-background:new 0 0 512 512;" xml:space="preserve">
<g>
	<path style="fill:#ADE5FF;" d="M216,50V34.75C216,21.081,227.081,10,240.75,10h30.5C284.919,10,296,21.081,296,34.75V50H216z"/>
	<polyline style="fill:#ADE5FF;" points="450.71,395.375 502,502 463.33,502 407.165,445.835 	"/>
	<polyline style="fill:#ADE5FF;" points="61.29,395.375 10,502 48.67,502 104.835,445.835 	"/>
</g>
<circle style="fill:#7D9BFF;" cx="256" cy="276" r="226"/>
<circle style="fill:#FFFFFF;" cx="256" cy="276" r="178"/>
<circle style="fill:#FF5D5D;" cx="256" cy="276" r="26.934"/>
<g>
	<path style="fill:#ADE5FF;" d="M48.857,163.393l-0.742-0.742c-26.106-26.106-26.106-68.431,0-94.537l0,0
		c26.106-26.106,68.431-26.106,94.537,0l0.742,0.742L48.857,163.393z"/>
	<path style="fill:#ADE5FF;" d="M463.143,163.393l0.742-0.742c26.106-26.106,26.106-68.431,0-94.537l0,0
		c-26.106-26.106-68.431-26.106-94.537,0l-0.742,0.742L463.143,163.393z"/>
</g>
<path d="M256,88C152.337,88,68,172.336,68,276c0,103.663,84.337,188,188,188s188-84.337,188-188C444,172.336,359.663,88,256,88z
	 M256,444c-92.636,0-168-75.364-168-168s75.364-168,168-168s168,75.364,168,168S348.636,444,256,444z"/>
<path d="M511.012,497.665l-50.167-104.29C481.166,358.042,492,317.856,492,276c0-36.617-8.298-71.954-23.978-103.885
	c0.784-0.439,1.526-0.983,2.193-1.65l0.742-0.742c14.515-14.515,22.508-33.813,22.508-54.34c0-20.526-7.993-39.825-22.508-54.339
	c-29.965-29.963-78.72-29.962-108.677-0.002l-0.742,0.742c-0.668,0.667-1.213,1.41-1.653,2.195
	C342.791,55.584,324.722,49.31,306,45.292V34.75C306,15.589,290.411,0,271.25,0h-30.5C221.589,0,206,15.589,206,34.75v10.542
	c-18.722,4.018-36.791,10.292-53.885,18.686c-0.44-0.785-0.985-1.527-1.653-2.195l-0.739-0.74
	c-29.962-29.961-78.714-29.962-108.68,0c-29.963,29.963-29.963,78.716,0,108.679l0.742,0.742c0.667,0.667,1.409,1.211,2.193,1.65
	C28.298,204.046,20,239.383,20,276c0,41.856,10.834,82.042,31.155,117.375L0.988,497.665c-1.49,3.099-1.284,6.746,0.546,9.657
	S6.562,512,10,512h38.671c2.652,0,5.195-1.054,7.071-2.929l50.58-50.581C148.42,493.148,200.761,512,256,512
	s107.58-18.852,149.678-53.51l50.58,50.581c1.876,1.875,4.419,2.929,7.071,2.929H502c3.438,0,6.636-1.767,8.466-4.678
	S512.502,500.764,511.012,497.665z M456.814,75.186c21.69,21.689,22.141,56.681,1.381,78.941
	c-9.792-16.179-21.603-31.289-35.318-45.005c-13.715-13.715-28.825-25.526-45.004-35.318
	C400.133,53.045,435.125,53.496,456.814,75.186z M226,34.75c0-8.133,6.617-14.75,14.75-14.75h30.5c8.133,0,14.75,6.617,14.75,14.75
	v7.135C276.126,40.64,266.113,40,256,40s-20.126,0.64-30,1.885V34.75z M38.535,115.383c0-15.184,5.913-29.46,16.65-40.197
	c21.688-21.688,56.679-22.141,78.942-1.381c-16.179,9.792-31.289,21.603-45.004,35.318c-13.716,13.716-25.528,28.827-35.319,45.007
	C43.95,143.573,38.535,129.897,38.535,115.383z M44.528,492H25.907l37.952-78.896c7.524,10.497,15.95,20.46,25.264,29.773
	c0.756,0.756,1.527,1.492,2.291,2.236L44.528,492z M40,276c0-119.103,96.897-216,216-216s216,96.897,216,216s-96.897,216-216,216
	S40,395.103,40,276z M467.472,492l-46.886-46.887c0.764-0.745,1.535-1.48,2.291-2.236c9.314-9.314,17.74-19.277,25.264-29.773
	L486.093,492H467.472z"/>
<path d="M256.109,150c2.641,0,5.21-1.07,7.07-2.93c1.87-1.86,2.93-4.44,2.93-7.07s-1.06-5.21-2.93-7.07
	c-1.86-1.86-4.43-2.93-7.07-2.93c-2.63,0-5.21,1.07-7.069,2.93c-1.86,1.86-2.931,4.44-2.931,7.07s1.07,5.21,2.931,7.07
	C250.899,148.93,253.479,150,256.109,150z"/>
<path d="M255.89,402c-2.64,0-5.21,1.069-7.08,2.93c-1.859,1.86-2.92,4.44-2.92,7.07s1.061,5.21,2.92,7.069
	c1.87,1.86,4.45,2.931,7.08,2.931c2.63,0,5.2-1.07,7.07-2.931c1.859-1.859,2.93-4.439,2.93-7.069s-1.07-5.21-2.93-7.07
	C261.1,403.069,258.52,402,255.89,402z"/>
<path d="M399.069,269.04c-1.859-1.86-4.439-2.931-7.069-2.931s-5.21,1.07-7.07,2.931c-1.86,1.859-2.93,4.439-2.93,7.069
	c0,2.631,1.069,5.21,2.93,7.07c1.86,1.87,4.44,2.93,7.07,2.93s5.21-1.06,7.069-2.93c1.86-1.86,2.931-4.439,2.931-7.07
	C402,273.479,400.93,270.899,399.069,269.04z"/>
<path d="M120,265.89c-2.63,0-5.21,1.061-7.07,2.92c-1.86,1.87-2.93,4.45-2.93,7.08s1.069,5.2,2.93,7.07
	c1.86,1.859,4.44,2.93,7.07,2.93s5.21-1.07,7.069-2.93c1.86-1.86,2.931-4.44,2.931-7.07c0-2.64-1.07-5.21-2.931-7.08
	C125.21,266.95,122.63,265.89,120,265.89z"/>
<path d="M352.468,193.801c3.905-3.905,3.905-10.237,0-14.143c-3.906-3.905-10.236-3.904-14.143,0l-64.186,64.187
	c-5.362-3.037-11.549-4.78-18.139-4.78c-6.557,0-12.715,1.725-18.058,4.733l-30.683-30.683c-3.906-3.905-10.236-3.905-14.143,0
	c-3.905,3.905-3.905,10.237,0,14.143l30.683,30.683c-3.008,5.343-4.733,11.502-4.733,18.058c0,20.366,16.568,36.935,36.935,36.935
	s36.935-16.568,36.935-36.935c0-6.524-1.707-12.653-4.687-17.978L352.468,193.801z M256,292.935
	c-9.338,0-16.935-7.597-16.935-16.935s7.597-16.935,16.935-16.935c9.338,0,16.935,7.597,16.935,16.935S265.338,292.935,256,292.935z
	"/>
<path d="M387.265,310.821c-5.215-1.801-10.914,0.963-12.72,6.183c-11.401,32.97-36.297,59.915-68.302,73.928
	c-5.059,2.215-7.365,8.111-5.149,13.171c1.644,3.754,5.313,5.992,9.165,5.992c1.339,0,2.701-0.271,4.006-0.843
	c37.102-16.243,65.962-47.483,79.183-85.711C395.252,318.321,392.484,312.627,387.265,310.821z"/>
<g>
</g>
<g>
</g>
<g>
</g>
<g>
</g>
<g>
</g>
<g>
</g>
<g>
</g>
<g>
</g>
<g>
</g>
<g>
</g>
<g>
</g>
<g>
</g>
<g>
</g>
<g>
</g>
<g>
</g>
</svg>
